<svg xmlns="http://www.w3.org/2000/svg" viewBox="0 0 146.99 150.36"><defs><style>.cls-1{fill:#414042;}.cls-2{fill:#f8ae43;}</style></defs><g id="Layer_2" data-name="Layer 2"><g id="Layer_1-2" data-name="Layer 1"><path class="cls-1" d="M73.17,40.35a36.85,36.85,0,0,1,0,73.7Z"/><path class="cls-2" d="M146.24,77.3A73.16,73.16,0,0,0,73.26,4h-.07A73.16,73.16,0,0,0,73,150.35h.08a73.14,73.14,0,0,0,73.18-73M73.05,131.4a54.2,54.2,0,1,1,54.24-54.13A54.21,54.21,0,0,1,73.05,131.4"/><path class="cls-1" d="M135.47,1.39h-3.1V10h-1.72V1.39h-3.07V0h7.89Z"/><path class="cls-1" d="M139,0l2.87,7.63L144.75,0H147V10h-1.72V6.67l.17-4.39L142.5,10h-1.24l-2.93-7.66.17,4.38V10h-1.72V0Z"/></g></g></svg>