<?xml version="1.0" encoding="UTF-8"?> <svg xmlns="http://www.w3.org/2000/svg" xmlns:xlink="http://www.w3.org/1999/xlink" version="1.1" id="Layer_1" x="0px" y="0px" viewBox="0 0 1734.3 469.6" style="enable-background:new 0 0 1734.3 469.6;" xml:space="preserve"> <style type="text/css"> .st0{fill:#0288D1;} .st1{fill:#78AA29;} .st2{fill:#FFFFFF;} .st3{fill:#232323;} .st4{fill:#9BCD57;} </style> <g> <g> <g> <g> <path class="st0" d="M438.2,170l-36.7,36.7c6.9,2.6,13.2,6.6,18.5,11.9c5,5,8.8,10.7,11.4,17.2c2.5,6.2,3.7,12.8,3.7,19.6 c-0.1,13.9-5.6,26.9-15.6,36.6c-9.6,9.4-22.4,14.5-35.9,14.5s-26.3-5.2-35.9-14.6c-0.2-0.2-0.3-0.3-0.5-0.5 c-5.3-5.3-9.3-11.6-11.9-18.5l-36.4,36.3l43.5,43.5c-2.9,0.8-6.7,1.5-11.2,2.3c-8.5,1.6-16.9,4.9-23.5,11.6 c-14.7,15.1-14.8,39.5,0,54.6c0.1,0.1,0.3,0.3,0.4,0.4c15.3,15.3,40.1,15.3,55.4,0c6.5-6.5,9.6-14.7,11.2-23.1 c0.8-4.1,1.6-8.3,2.4-11.2l40.6,40.6c6.4,6.4,16.8,6.4,23.2,0L556.8,312c6.4-6.4,6.4-16.8,0-23.2L438.2,170z"></path> <path class="st1" d="M196.1,189.3c2.6-6.9,6.6-13.2,11.9-18.5c9.7-9.7,22.7-15.1,36.4-15.1c13.8,0,26.7,5.4,36.4,15.1 c0.2,0.2,0.3,0.3,0.5,0.5c9.4,9.6,14.5,22.4,14.5,35.9s-5.2,26.3-14.6,35.9c-5.4,5.5-11.9,9.7-19,12.3l36.5,36.5l43.6-43.6 c0.7,2.4,1.6,7.2,2.4,11.6c1.5,8.2,4.8,16.3,11.1,22.6c0.1,0.1,0.2,0.2,0.4,0.4c15.1,14.7,39.5,14.8,54.6,0 c5.2-5,8.7-11.2,10.5-17.6c3.6-13.1,0.3-27.8-10.1-38.1c-6.4-6.4-14.5-9.3-22.6-11.1c-5-1.1-9.2-1.7-11.6-2.4l52.3-52.3 L301.8,33.9c-6.4-6.4-16.8-6.4-23.2,0l-119,119L196.1,189.3z"></path> <path class="st0" d="M23.3,312.3l127.5,127.5l53.4-53.4c0,0-8.7-0.6-11.3-1.1c-8.8-0.8-17.3-4.6-24.1-11.3 c-15.4-15.4-15.3-40.5,0.4-55.8c15.1-14.7,39.5-14.7,54.6,0c0.1,0.1,0.2,0.2,0.4,0.4c6.7,6.7,10.5,15.3,11.3,24.1 c0.4,2.6,1.1,11.3,1.1,11.3l53.4-53.4l-52.3-52.3c1.2-0.4,7.1-1.6,11.7-2.4c8.4-1.4,16.5-4.9,22.9-11.5 c14.7-15.1,14.8-39.5,0-54.6c-0.1-0.1-0.3-0.3-0.4-0.4c-7.2-7.2-16.4-11-25.8-11.4c-10.6-0.5-21.5,3.3-29.6,11.4 c-6.3,6.3-9.6,14.4-11.1,22.6c-1,5.2-1.7,9.2-2.4,11.6v0.1l-52.1-52.2L23.4,289C16.9,295.5,16.9,305.9,23.3,312.3L23.3,312.3z"></path> </g> <g> <g> <path class="st2" d="M297.9,50.8c0,0,10.4,10.8,23.5,22.9c0,0-13.4,16.8-28.2,36.3c11-8.3,25.3-19.4,39.2-31.1 c0,0,12,12.9,23.2,24.9c0,0-25.6,25.8-63.1,68.5c0,0-9.3-8.4-17.9-16.4c0,0,20.7-19.8,47.9-49c-12.1,8.7-28.7,21.4-42.4,33 c0,0-8.5-8.7-15.9-16.8c0,0,11.2-13.6,29.4-38.4c-11,11-26.2,26.2-42.1,42.8c0,0-10.2-10.8-17.1-17.9 C234.3,109.6,262,85,297.9,50.8z"></path> </g> </g> <g> <g> <path class="st2" d="M492.1,261.8c19,17.5,32.8,31.8,32.8,31.8s-36.5,48.1-76.2,104.5c0,0-9.1-9.6-24.2-23.9 c0,0,3.9-4.4,13.1-15.1c-2.1-2.4-6-6.3-10.5-10.7l-11.3,9.8c0,0-6.6-7.3-22.3-22.8C393.5,335.3,432.4,307.5,492.1,261.8z M446.9,331.3c3.9,4.2,7.7,7.7,7.7,7.7c19.3-23.3,34.8-42.6,34.8-42.6C481.8,302.4,466.6,314.6,446.9,331.3z"></path> </g> </g> <g> <g> <path class="st2" d="M44.9,293.6c4.3-5.3,8.4-10.1,12.4-14.1c26.2-26.2,47.7-26.3,70.6-3.5c20,20,21.8,42.9,3.6,61.6 c5.5,5.3,11.1,10.6,17.6,16.6c0,0-9.6,9.1-22.1,22.4C126.9,376.5,95.5,344,44.9,293.6z M114.1,321c4.3-5.5,3.5-10.9-7.7-22.1 c-10.8-10.8-17.7-12.6-22-7.6C84.4,291.3,94.2,301.5,114.1,321z"></path> </g> </g> </g> <g> <g> <path class="st2" d="M144.9,198.9c-1.6,1.6-2.6,3.6-2.9,5.9c-0.3,2.2,0.1,4.3,0.5,5.7c-1.4-0.4-3.4-0.8-5.7-0.5 s-4.3,1.3-5.9,2.9c-4.5,4.5-4.2,11.6,0.7,16.4c5.3,5.3,13.1,4.6,25,3.7c2-0.2,4.3-0.3,6.7-0.5c0.3,0,0.6-0.2,0.8-0.4 c0.2-0.2,0.4-0.5,0.4-0.8c0.2-2.4,0.3-4.7,0.5-6.7c0.9-11.9,1.6-19.7-3.7-25C156.5,194.7,149.4,194.4,144.9,198.9z"></path> </g> </g> <path class="st2" d="M380.3,143c-1.7-1.7-4.5-1.7-6.2,0c-2.5-2.6-6.6-2.6-9.2-0.1c-0.6,0.6-1,1.2-1.4,2c-0.1-0.1-0.2-0.2-0.3-0.3 c-1.7-1.7-4.5-1.7-6.2,0c-0.8,0.8-1.3,1.9-1.3,3c-3.4-1-7.1,0.9-8.1,4.4c-0.3,0.8-0.3,1.7-0.2,2.6c-2.2,1-3.1,3.6-2.1,5.7 c0.2,0.5,0.5,0.9,0.9,1.3c-2.6,2.6-2.6,6.7,0,9.3c-1.7,1.7-1.7,4.5,0,6.2c1.1,1.1,2.8,1.6,4.4,1.1l30.8-30.8 C381.8,145.8,381.4,144.2,380.3,143z M350.5,157.4c-0.2-0.2-0.2-0.6,0-0.8s0.6-0.2,0.8,0c1.4,1.4,3.5,1.5,5,0.3 c-1.7-2.1-1.3-5.2,0.8-6.9c0.5-0.4,1.1-0.7,1.8-0.9c0.3-0.1,0.6,0.1,0.7,0.4c0.1,0.3-0.1,0.6-0.4,0.6c-2,0.5-3.3,2.6-2.7,4.7 c0.5,2,2.6,3.3,4.7,2.7c0.6-0.2,1.2-0.5,1.7-1c0.2-0.2,0.6-0.2,0.8,0s0.2,0.6,0,0.8c-1.8,1.8-4.6,1.9-6.6,0.3 C355.1,159.3,352.3,159.1,350.5,157.4z M348.9,171.3c-0.2-0.2-0.2-0.6,0-0.8c1.5-1.5,1.5-3.9,0-5.4c-0.2-0.2-0.2-0.6,0-0.8 s0.6-0.2,0.8,0c1.9,1.9,1.9,5,0,7C349.5,171.5,349.2,171.5,348.9,171.3z M353.1,167.5c-0.1,0-0.2-0.1-0.2-0.1 c-0.2-0.2-0.2-0.6,0-0.8c0.1-0.1,0.3-0.2,0.5-0.1c2,0.5,4.1-0.7,4.7-2.7c0.2-0.6,0.2-1.3,0-2c-0.1-0.3,0.1-0.6,0.4-0.7 c0.3-0.1,0.6,0.1,0.6,0.4c0.7,2.6-0.9,5.3-3.5,6C354.8,167.7,353.9,167.7,353.1,167.5z M369.1,154.3c-1.5-1.5-3.9-1.5-5.4,0 c-0.2,0.2-0.6,0.2-0.8,0c-0.2-0.2-0.2-0.6,0-0.8c1.2-1.2,2.8-1.7,4.4-1.4c0.1-0.1,0.2-0.1,0.2-0.2c1.5-1.5,1.5-3.9,0-5.4 c-0.2-0.2-0.2-0.6,0-0.8s0.6-0.2,0.8,0c1.8,1.9,1.9,4.8,0.2,6.8c0.5,0.2,1,0.6,1.4,1c0.2,0.2,0.2,0.6,0,0.8 S369.3,154.5,369.1,154.3z M373.7,149.6c-1.2-1.2-1.7-3.1-1.3-4.8c0.1-0.3,0.4-0.5,0.7-0.4c0.3,0.1,0.5,0.4,0.4,0.7l0,0 c-0.4,1.3,0,2.7,1,3.7c0.2,0.2,0.2,0.6,0,0.8S373.9,149.8,373.7,149.6z"></path> <path class="st2" d="M380.3,180.2c1.7-1.7,2.3-4.2,1.6-6.5c2.4,0,4.3-2,4.3-4.4c0-1.1-0.5-2.2-1.3-3c-0.1-0.1-0.2-0.2-0.3-0.3 c3.3-1.5,4.7-5.3,3.2-8.6c-0.3-0.7-0.8-1.4-1.4-2c1.7-1.7,1.7-4.5,0-6.2c-1.1-1.1-2.8-1.6-4.4-1.1l-30.8,30.8 c-0.7,2.3,0.6,4.7,2.9,5.4c1.5,0.5,3.2,0,4.4-1.1c2.6,2.6,6.7,2.6,9.3,0c1.7,1.7,4.4,1.7,6.1,0.1c0.4-0.4,0.7-0.8,0.9-1.3 C376.9,182.3,378.9,181.6,380.3,180.2z M379.1,153.5l1.2,1.2c0.8-0.4,1.8,0,2.2,0.8c0.4,0.8,0,1.8-0.8,2.2s-1.8,0-2.2-0.8 c-0.2-0.4-0.2-1,0-1.4l-1.2-1.2c-0.2-0.2-0.2-0.6,0-0.8C378.6,153.3,378.9,153.3,379.1,153.5z M370.9,161c0.9-0.9,2.2-1.4,3.5-1.4 h4.2c0.6-0.5,1.5-0.4,2.1,0.2c0.6,0.6,0.6,1.7,0,2.3s-1.7,0.6-2.3,0c-0.4-0.4-0.5-0.9-0.4-1.4h-3.6c-1,0-2,0.4-2.7,1.1l-0.5,0.5 c-0.7,0.7-1.1,1.7-1.1,2.7v3.6c0.5-0.1,1,0.1,1.4,0.4c0.6,0.6,0.6,1.7,0,2.3s-1.7,0.6-2.3,0c-0.6-0.6-0.6-1.4-0.2-2.1V165 c0-1.3,0.5-2.6,1.4-3.5L370.9,161z M359.8,180.6c-0.6-0.6-0.6-1.4-0.2-2.1v-4.2c0-1.3,0.5-2.6,1.4-3.5l1.8-1.8 c0.2-0.2,0.6-0.2,0.8,0c0.2,0.2,0.2,0.6,0,0.8l-1.8,1.8c-0.7,0.7-1.1,1.7-1.1,2.7v3.6c0.5-0.1,1,0.1,1.4,0.4 c0.6,0.6,0.6,1.7,0,2.3C361.5,181.2,360.4,181.2,359.8,180.6z M370.6,179c-0.5-0.5-0.6-1.2-0.3-1.9l-4.3-4.3 c-0.2-0.2-0.2-0.6,0-0.8s0.6-0.2,0.8,0l4.3,4.3c0.8-0.4,1.8,0,2.2,0.8c0.4,0.8,0,1.8-0.8,2.2C371.8,179.6,371.1,179.5,370.6,179z M380.7,169c-0.2-0.2-0.3-0.4-0.4-0.6l0,0H375c-0.7,0-1.4-0.3-1.9-0.8l-0.9-0.9c-0.2-0.2-0.2-0.6,0-0.8s0.6-0.2,0.8,0l0.9,0.9 c0.3,0.3,0.7,0.5,1.2,0.5h5.3l0,0c0.1-0.2,0.2-0.4,0.4-0.6c0.6-0.6,1.7-0.6,2.3,0c0.6,0.6,0.6,1.7,0,2.3 C382.3,169.6,381.3,169.6,380.7,169z"></path> <path class="st2" d="M468.3,258.6l10.6-10.6l-2.7-1.3l-10,10c-1.7-0.8-3.7-0.5-5.1,0.8l-5.4,5.4c-0.6,0.6-0.6,1.4,0,2l4.3,4.3 c0.6,0.6,1.4,0.6,2,0l5.4-5.4C468.9,262.4,469.2,260.3,468.3,258.6z"></path> <path class="st2" d="M458.4,236.8l-6.5-12.9l-6.8,6.8c-0.3,0.3-0.4,0.6-0.4,1c0,5.5,2.2,10.7,6.1,14.6c3.9,3.9,9.1,6.1,14.6,6.1 c0.4,0,0.7-0.1,1-0.4l6.8-6.8l-12.9-6.5C459.4,238.2,458.8,237.5,458.4,236.8L458.4,236.8z"></path> <path class="st2" d="M461.2,235.9c0.1,0.1,0.2,0.2,0.4,0.3l21.4,10.7c0.5,0.3,1.2,0.2,1.6-0.3c0.4-0.4,0.5-1.1,0.3-1.6l-10.7-21.5 c-0.1-0.3-0.4-0.5-0.6-0.6l-21.4-10.7c-0.5-0.3-1.2-0.2-1.6,0.3c-0.4,0.4-0.5,1.1-0.3,1.6l10.7,21.4 C461,235.6,461.1,235.8,461.2,235.9L461.2,235.9z"></path> </g> <g> <g> <g> <g> <path class="st0" d="M607.7,196.8V70.3H631c7.7,0,15.1,1.5,21.9,4.4c6.9,2.9,12.8,6.9,17.9,12c5.1,5.1,9.1,11.1,12.1,17.9 c3,6.9,4.5,14.2,4.5,21.9c0,7.9-1.5,15.2-4.5,22s-7,12.8-12.1,17.9c-5.1,5.1-11.1,9.2-17.9,12.1c-6.9,2.9-14.2,4.4-21.9,4.4 v13.8L607.7,196.8L607.7,196.8z M664.2,126.6c0-4.5-0.9-8.8-2.7-12.9c-1.8-4-4.2-7.6-7.1-10.5c-3-3-6.5-5.3-10.5-7.1 c-4-1.7-8.3-2.6-12.9-2.6v66.3c4.5,0,8.8-0.9,12.9-2.6c4-1.7,7.6-4.1,10.5-7.1s5.4-6.5,7.1-10.5 C663.3,135.6,664.2,131.2,664.2,126.6z"></path> <path class="st0" d="M792.9,196.8h-25.7l-8-17.8h-53.1l-7.8,17.8h-25.9l57.2-126.7h6.1L792.9,196.8z M716.4,155.8H749 l-16.4-36.5L716.4,155.8z"></path> <path class="st0" d="M812.9,196.5c-2.3,0.1-4.7-0.1-7-0.5s-4.6-1.1-6.8-2l-9.5-4.7l11-20.6l8.5,4.2c3.1,0.8,6,0.7,8.6-0.3 c2-0.7,3.8-1.7,5.4-3c1.6-1.3,2.8-2.9,3.7-4.8c1-1.9,1.6-3.8,1.7-5.9c0.2-2,0-4.1-0.6-6.1c-1.3-4.1-3.9-7.1-7.8-9.1 c-6.4-3.3-11.4-7.9-15-13.8c-3.6-5.9-5.6-12.1-5.9-18.8c-0.2-3.3,0-6.7,0.7-10c0.7-3.4,1.9-6.7,3.6-9.9c2-3.7,4.4-6.9,7.3-9.7 c2.9-2.8,6-5.1,9.5-7c3.4-1.8,7.1-3.1,11-3.7c3.9-0.7,7.7-0.8,11.6-0.3c2.2,0.2,4.4,0.7,6.6,1.4c2.2,0.7,4.4,1.6,6.5,2.7 l-10.6,20.6c-1.9-0.9-3.9-1.4-6-1.7c-3.1-0.2-6,0.4-8.8,1.9s-4.9,3.7-6.5,6.6c-1,1.9-1.6,3.9-1.7,6c-0.1,2.1,0.1,4.1,0.7,6 c0.6,1.9,1.6,3.6,2.9,5.2c1.3,1.6,2.9,2.9,4.8,3.9c6.3,3.3,11.4,8.1,15.2,14.2c3.8,6.1,5.7,13,5.7,20.7c0,5.3-1,10.3-3.1,14.9 c-2.1,4.7-4.8,8.7-8.4,12.2c-3.5,3.5-7.7,6.3-12.5,8.3C823.2,195.5,818.2,196.5,812.9,196.5z"></path> <path class="st0" d="M879.3,196.5c-2.3,0.1-4.7-0.1-7-0.5s-4.6-1.1-6.8-2l-9.5-4.7l11-20.6l8.5,4.2c3.1,0.8,6,0.7,8.6-0.3 c2-0.7,3.8-1.7,5.4-3c1.6-1.3,2.8-2.9,3.7-4.8c1-1.9,1.6-3.8,1.7-5.9c0.2-2,0-4.1-0.6-6.1c-1.3-4.1-3.9-7.1-7.8-9.1 c-6.4-3.3-11.4-7.9-15-13.8c-3.6-5.9-5.6-12.1-5.9-18.8c-0.2-3.3,0-6.7,0.7-10c0.7-3.4,1.9-6.7,3.6-9.9c2-3.7,4.4-6.9,7.3-9.7 c2.9-2.8,6-5.1,9.5-7c3.4-1.8,7.1-3.1,11-3.7c3.9-0.7,7.7-0.8,11.6-0.3c2.2,0.2,4.4,0.7,6.6,1.4c2.2,0.7,4.4,1.6,6.5,2.7 l-10.6,20.6c-1.9-0.9-3.9-1.4-6-1.7c-3.1-0.2-6,0.4-8.8,1.9s-4.9,3.7-6.5,6.6c-1,1.9-1.6,3.9-1.7,6c-0.1,2.1,0.1,4.1,0.7,6 c0.6,1.9,1.6,3.6,2.9,5.2c1.3,1.6,2.9,2.9,4.8,3.9c6.3,3.3,11.4,8.1,15.2,14.2c3.8,6.1,5.7,13,5.7,20.7c0,5.3-1,10.3-3.1,14.9 c-2,4.7-4.8,8.7-8.4,12.2c-3.5,3.5-7.7,6.3-12.5,8.3C889.6,195.5,884.6,196.5,879.3,196.5z"></path> <path class="st0" d="M957.8,81.7c0,3.9-1.3,7.1-3.9,9.7c-2.6,2.6-5.8,3.9-9.5,3.9c-3.8,0-7-1.3-9.6-3.9c-2.7-2.6-4-5.8-4-9.7 c0-3.8,1.3-6.9,4-9.5s5.9-3.9,9.6-3.9c3.8,0,6.9,1.3,9.5,3.9C956.5,74.8,957.8,78,957.8,81.7z M932.9,196.8V105h23.3v91.8 H932.9z"></path> <path class="st0" d="M1031.3,196.8c-8.7,0-17-1.7-24.7-5s-14.4-7.8-20.2-13.5c-5.8-5.7-10.3-12.4-13.6-20.1 c-3.3-7.7-5-15.9-5-24.7c0-8.7,1.7-17,5-24.7s7.9-14.4,13.6-20.2c5.8-5.8,12.5-10.3,20.2-13.6s15.9-5,24.7-5 c8.7,0,17,1.7,24.7,5s14.4,7.9,20.2,13.6c5.8,5.8,10.3,12.5,13.6,20.2c3.3,7.7,5,15.9,5,24.7c0,8.7-1.7,17-5,24.7 s-7.9,14.4-13.6,20.1c-5.8,5.7-12.5,10.2-20.2,13.5C1048.2,195.2,1040,196.8,1031.3,196.8z M1031.3,93.3 c-5.5,0-10.7,1.1-15.6,3.2c-4.9,2.1-9.1,5-12.8,8.6c-3.7,3.7-6.5,7.9-8.6,12.8c-2.1,4.9-3.2,10.1-3.2,15.6s1.1,10.7,3.2,15.6 c2.1,4.9,5,9.1,8.6,12.7c3.7,3.6,7.9,6.5,12.8,8.6s10.1,3.2,15.6,3.2s10.7-1.1,15.6-3.2c4.9-2.1,9.1-5,12.8-8.6 c3.7-3.6,6.5-7.8,8.6-12.7s3.2-10.1,3.2-15.6s-1.1-10.7-3.2-15.6c-2.1-4.9-5-9.1-8.6-12.8c-3.7-3.7-7.9-6.5-12.8-8.6 C1042,94.4,1036.8,93.3,1031.3,93.3z"></path> <path class="st0" d="M1104.7,196.8V70.3h23.3c7.7,0,15.1,1.5,21.9,4.4c6.9,2.9,12.8,6.9,17.9,12s9.1,11.1,12.1,17.9 c3,6.9,4.5,14.2,4.5,21.9v70.3h-23.3v-70.3c0-4.5-0.9-8.8-2.7-12.9c-1.8-4-4.2-7.6-7.1-10.5c-3-3-6.5-5.3-10.5-7.1 c-4-1.7-8.3-2.6-12.9-2.6v103.3L1104.7,196.8L1104.7,196.8z"></path> <path class="st0" d="M1342.5,196.8v-81.9l-33.2,24.6l-33.2-24.6v81.9h-23.3v-128l56.5,41.9l56.5-41.9v128.1h-23.3V196.8z"></path> <path class="st0" d="M1409.4,81.7c0,3.9-1.3,7.1-3.9,9.7c-2.6,2.6-5.8,3.9-9.5,3.9c-3.8,0-7-1.3-9.6-3.9c-2.7-2.6-4-5.8-4-9.7 c0-3.8,1.3-6.9,4-9.5s5.9-3.9,9.6-3.9c3.8,0,6.9,1.3,9.5,3.9C1408.1,74.8,1409.4,78,1409.4,81.7z M1384.5,196.8V105h23.3v91.8 H1384.5z"></path> <path class="st0" d="M1492.3,196.8V149l-43-33.4v81.2H1426V68.3l66.3,51.3V70.3h23.3v126.6L1492.3,196.8L1492.3,196.8z"></path> <path class="st0" d="M1579.2,196.8c-8.1,0-15.8-1.5-23.3-4.4c-7.4-2.9-14.1-7.2-20.1-12.9l-3.7-3.5V90.8 c6.6-6.6,13.8-11.8,21.6-15.4c7.7-3.6,16.2-5.4,25.4-5.4c8.7,0,17,1.7,24.7,5s14.4,7.9,20.2,13.6c5.8,5.8,10.3,12.5,13.6,20.2 c3.3,7.7,5,15.9,5,24.7c0,8.7-1.7,17-5,24.7s-7.9,14.4-13.6,20.1c-5.8,5.7-12.5,10.2-20.2,13.5 C1596.1,195.2,1587.9,196.8,1579.2,196.8z M1555.4,165.8c3.4,2.5,7.2,4.5,11.2,5.8s8.2,2,12.5,2c5.5,0,10.7-1.1,15.6-3.2 c4.9-2.1,9.1-5,12.8-8.6c3.7-3.6,6.5-7.8,8.6-12.7s3.2-10.1,3.2-15.6s-1.1-10.7-3.2-15.6c-2.1-4.9-5-9.1-8.6-12.8 c-3.7-3.7-7.9-6.5-12.8-8.6s-10.1-3.2-15.6-3.2c-4.3,0-8.5,0.7-12.5,2s-7.8,3.3-11.2,5.8V165.8z"></path> <path class="st0" d="M1663.2,196.5c-4.3,0-8.3-0.6-11.9-1.9c-3.6-1.3-7.4-3-11.4-5.2l11-20.6l5.3,2.8c1.9,0.9,3.8,1.4,5.8,1.7 c2,0.2,4,0,6-0.7c4.1-1.3,7.1-3.9,9.1-7.8c0.9-1.9,1.5-3.8,1.7-5.9c0.3-2,0.1-4.1-0.6-6.1c-1.3-4.1-3.9-7.1-7.8-9.1 c-3.8-2-7-4.4-9.8-7.3c-2.8-2.9-5-6-6.8-9.5c-1.8-3.4-3-7.1-3.7-11s-0.8-7.7-0.3-11.6c0.7-5.8,2.4-10.9,5.1-15.4 c2.8-4.5,6.2-8.2,10.2-11.1c4-2.9,8.5-5.1,13.4-6.4c4.9-1.3,9.7-1.7,14.6-1c2.2,0.2,4.4,0.7,6.6,1.4s4.4,1.6,6.5,2.7 l-10.6,20.6c-1.9-0.9-3.9-1.4-6-1.7c-3.1-0.2-6,0.4-8.8,1.9s-4.9,3.7-6.5,6.6c-1,1.9-1.6,3.9-1.7,6s0.1,4.1,0.7,6 s1.6,3.6,2.9,5.2c1.3,1.6,2.9,2.9,4.8,3.9c4.7,2.4,8.6,5.6,11.8,9.4c3.2,3.8,5.6,8.3,7.3,13.4c1.5,5,2.1,10,1.7,15.1 s-1.8,10-4.2,14.6c-3.3,6.4-8.1,11.5-14.2,15.3C1677.6,194.6,1670.7,196.5,1663.2,196.5z"></path> </g> </g> </g> <g> <g> <path class="st1" d="M649,273.7h-23.2l-3.3,8.2H610l21.2-52.1h12.5l21.2,52.1h-12.6L649,273.7z M645.1,264.2l-7.7-19l-7.7,19 H645.1z"></path> <path class="st1" d="M785.8,255.8c0-14.6,12.7-26.9,27.7-26.9c7.9,0,15.2,3.3,20.2,8.7l-8.1,7.3c-3-3.5-7.4-5.8-12.1-5.8 c-8.7,0-16.1,7.7-16.1,16.8c0,9.1,7.4,16.8,16.1,16.8c4.8,0,9.1-2.4,12.1-5.8l8.1,7.3c-5.1,5.3-12.4,8.7-20.2,8.7 C798.5,282.8,785.8,270.4,785.8,255.8z"></path> <path class="st1" d="M992.2,273.7H969l-3.3,8.2h-12.5l21.2-52.1h12.5l21.2,52.1h-12.5L992.2,273.7z M988.4,264.2l-7.7-19 l-7.7,19H988.4z"></path> <path class="st1" d="M1131.5,229.8h18.7c17.5,0,29.9,10.8,29.9,26c0,15.2-12.4,26.1-29.9,26.1h-18.7V229.8z M1151.6,271.7 c9.9,0,17-6.6,17-15.9c0-9.3-7.1-15.8-17-15.8h-8.9v31.8L1151.6,271.7L1151.6,271.7z"></path> <path class="st1" d="M1316.8,239.9v10.4h26.2v10.1h-26.2v11.4h28.9v10.1h-40.1v-52.1h40.1v10.1H1316.8z"></path> <path class="st1" d="M1471.4,229.8h11.1l16.1,29.4l16.1-29.4h11.2v52.1h-11.2v-32.5l-16.1,29.4l-16.1-29.4v32.5h-11.1V229.8z"></path> <path class="st1" d="M1667.5,263.1l-20.4-33.3h13l13,22.8l13.5-22.8h12.5l-20.3,33.3v18.8h-11.3L1667.5,263.1L1667.5,263.1z"></path> </g> </g> <g> <g> <path class="st3" d="M607,319.2c2.2,0,3.5,0.6,3.7,1.9c0.1,0.6,0.2,1.1,0.3,1.7s0.2,1.2,0.3,2s0.2,1.6,0.2,2.5 c0.1,1,0.2,2.1,0.3,3.4c0.2,2.4,0.3,4.5,0.4,6.2c0.1,1.7,0.2,3.2,0.3,4.4c0.1,1.2,0.2,2.4,0.3,3.4s0.2,2.1,0.4,3.2 c0.1,0.6,0.2,1.1,0.3,1.5s0.1,0.7,0.1,0.7c0.2,0.2,0.4,0.1,0.6-0.3c0,0,0.2-0.4,0.3-1.1c0.2-0.7,0.4-1.6,0.7-2.6 c0.3-1.1,0.6-2.3,0.9-3.6c0.3-1.3,0.7-2.7,1-4c0.4-1.3,0.6-2.5,0.9-3.5c0.2-1,0.4-2,0.6-2.8c0.2-0.9,0.3-1.7,0.4-2.5 c0.1-0.8,0.2-1.6,0.3-2.4c0.2-1.4,0.3-2.7,0.5-3.8c0.2-1.1,0.4-1.8,0.7-2.2c0.3-0.6,0.9-1,1.8-1.4c0.9-0.4,1.9-0.6,2.9-0.6 c2.2,0,3.5,0.7,4,2c0,0.2,0.1,0.5,0.2,1.2c0.1,0.6,0.2,1.3,0.4,2c0.7,4,1.5,7.9,2.4,11.7c1,3.9,1.9,7.7,3,11.5 c0.4,1.5,0.7,2.4,0.8,2.7c0.1,0.3,0.3,0.5,0.5,0.5s0.3-0.1,0.4-0.4c0.1-0.3,0.2-1.1,0.5-2.4c0.2-0.7,0.3-1.5,0.5-2.3 s0.3-1.5,0.4-2c0.2-0.7,0.3-1.3,0.4-1.9c0.1-0.6,0.2-1.2,0.3-1.9c0.1-0.7,0.3-1.4,0.5-2.2c0.2-0.8,0.4-1.7,0.6-2.8 c0.4-1.8,0.6-3.2,0.9-4.3c0.2-1.1,0.4-1.9,0.5-2.7c0.1-0.7,0.2-1.3,0.3-1.9c0.1-0.5,0.1-1.1,0.2-1.8c0.1-0.9,0.2-1.6,0.3-2.2 s0.2-1,0.2-1.3c0.1-0.3,0.2-0.5,0.3-0.7s0.2-0.3,0.4-0.5c0.5-0.6,1.2-1,2-1.2c0.8-0.3,1.7-0.4,2.7-0.3c1.6,0.1,2.6,0.6,3.1,1.4 c0.2,0.3,0.2,0.9,0.1,1.9c0,0.8-0.1,1.7-0.3,3c-0.2,1.2-0.4,2.5-0.6,3.8c-0.2,1.3-0.5,2.6-0.8,3.8c-0.3,1.2-0.5,2.3-0.7,3.2 c-0.2,1-0.4,2.2-0.7,3.5s-0.5,2.4-0.6,3.3c-0.6,2.7-1.1,5.5-1.7,8.2c-0.6,2.7-1,5.4-1.4,8.2c-0.3,1.3-0.5,2.5-0.8,3.7 s-0.5,2.5-0.8,3.7c-0.3,1.4-0.5,2.4-0.9,2.9c-0.3,0.5-0.9,1-1.6,1.4c-0.5,0.2-0.9,0.4-1.3,0.5c-0.4,0.1-0.9,0.2-1.5,0.2 c-1,0.1-1.8-0.1-2.6-0.3c-0.8-0.3-1.3-0.7-1.5-1.2c-0.2-0.4-0.5-1-0.9-2.1c-0.4-1-0.8-2.2-1.3-3.5s-0.9-2.7-1.4-4.2 s-0.9-2.8-1.3-4.1c-0.2-0.6-0.4-1.4-0.7-2.5s-0.6-2.3-0.9-3.4c-0.3-1.1-0.7-2.6-1.1-4.4c0-0.1-0.1-0.3-0.3-0.5s-0.3-0.3-0.5-0.3 s-0.3,0.2-0.5,0.6s-0.4,1.2-0.6,2.3c-0.2,0.6-0.3,1.3-0.6,2.1c-0.2,0.8-0.4,1.4-0.6,1.8c-0.2,0.6-0.4,1.1-0.5,1.5 c-0.1,0.5-0.3,0.9-0.4,1.4s-0.3,1-0.4,1.5c-0.1,0.5-0.3,1.2-0.5,1.9c-0.2,0.7-0.3,1.4-0.5,2.1s-0.3,1.2-0.3,1.5 c-0.3,0.9-0.5,1.8-0.7,2.7c-0.2,1-0.4,1.8-0.5,2.6c-0.2,1.2-0.4,2-0.5,2.5c-0.2,0.5-0.4,1-0.7,1.4c-0.6,0.7-1.4,1.3-2.5,1.7 c-1.1,0.4-2.3,0.5-3.5,0.3c-0.3-0.1-0.6-0.1-0.8-0.2s-0.5-0.2-0.9-0.3c-0.6-0.3-1.1-0.8-1.4-1.6c-0.4-0.7-0.7-2.1-1.1-4 c-0.3-1.5-0.6-3.3-1-5.5s-0.7-4.4-1-6.6c-0.7-3.8-1.1-7.7-1.4-11.5c-0.3-3.8-0.6-7.7-0.8-11.6c-0.1-1.1-0.1-1.9-0.2-2.5 c-0.1-0.6-0.1-1.2-0.2-1.6c-0.1-0.5-0.1-0.9-0.2-1.3c-0.1-0.4-0.1-0.9-0.2-1.5c-0.1-0.6-0.2-1.1-0.2-1.4s0-0.6,0-0.7 c0.2-1,1-1.7,2.4-2.2c0.5-0.2,0.9-0.3,1.2-0.4C606,319.2,606.5,319.2,607,319.2z"></path> <path class="st3" d="M689.9,354.2c0,0.7,0,1.3,0,1.8c0,0.6-0.1,1.2-0.1,1.8c-0.1,0.6-0.1,1.4-0.2,2.2c-0.1,0.8-0.2,1.8-0.3,3.1 c-0.1,0.9-0.2,1.7-0.2,2.5c-0.1,0.8-0.1,1.4-0.2,1.7c0,0.7,0,1.1-0.1,1.3c-0.1,0.2-0.2,0.5-0.5,0.7c-0.8,0.8-2,1.1-3.6,1.1 c-0.5,0-0.8,0-1.1,0s-0.6-0.1-0.9-0.2c-0.8-0.2-1.4-0.5-2-0.8c-0.6-0.4-0.9-0.7-1.1-1.1c-0.1-0.2-0.2-0.4-0.2-0.5 c0-0.2,0-0.4,0-0.8c0-0.6,0.1-1.3,0.2-2.2s0.2-2.2,0.3-3.7c0.1-1,0.2-1.9,0.3-2.7s0.1-1.5,0.2-2.1c0-0.6,0.1-1.2,0.1-1.8 c0-0.6,0-1.1,0-1.7c0-1,0-1.7,0-2.1s-0.1-0.8-0.2-1.3c-0.2-0.9-0.4-1.7-0.7-2.5s-0.6-1.3-0.8-1.5c-0.3-0.2-0.8,0-1.4,0.5 s-1.2,1.1-1.9,2c-0.4,0.4-0.7,1-1.2,1.7c-0.4,0.7-0.8,1.3-1,1.7c-0.2,0.3-0.3,0.6-0.6,1.1c-0.2,0.5-0.5,1-0.7,1.6 c-0.2,0.5-0.5,1.3-0.9,2.3s-0.8,2-1.3,2.9c-0.6,1.4-1.1,2.6-1.5,3.7c-0.4,1-0.7,2-1,2.7c-0.3,0.8-0.5,1.5-0.6,2.2 c-0.2,0.7-0.3,1.4-0.4,2.1c-0.1,0.5-0.2,0.8-0.3,1s-0.4,0.4-0.7,0.6c-0.5,0.4-1.1,0.6-1.8,0.7s-1.5,0.1-2.3,0 c-0.9-0.2-1.7-0.4-2.5-0.8s-1.3-0.8-1.5-1.3l-0.3-0.5v-5.5c0-3.4,0-6.6,0.1-9.8c0.1-3.1,0.2-6.1,0.3-9c0-0.4,0-1.3,0.1-2.7 c0-1.4,0.1-3.1,0.2-5.1c0.1-2,0.2-4,0.3-6.2s0.2-4.2,0.3-6s0.1-3.4,0.2-4.6c0-1.2,0.1-1.8,0.2-1.9c0.2-0.7,0.7-1.2,1.6-1.5 c0.9-0.3,1.6-0.4,2.3-0.4c0.6,0,1.2,0.1,1.8,0.2s1.2,0.3,1.7,0.6c0.5,0.3,1,0.6,1.4,1.1c0.4,0.4,0.6,1,0.6,1.6s0,1.3,0,2.1 c0,0.8-0.1,1.6-0.1,2.4c-0.1,0.8-0.1,1.7-0.1,2.5s-0.1,1.6-0.1,2.3c-0.1,1.7-0.2,3.3-0.3,5c-0.1,1.6-0.1,3.1-0.2,4.4 c0,1.3-0.1,2.4-0.1,3.2c0,0.8,0,1.3,0,1.4c0.2,0.2,0.3,0.2,0.3,0.2c0.1,0,0.2-0.1,0.4-0.2s0.5-0.4,1-0.8 c1.5-1.2,2.9-2.1,4.2-2.7s2.9-0.9,4.7-0.9s3.5,0.3,5.1,0.9s3,1.4,4.1,2.5c1.5,1.5,2.5,3.3,2.8,5.3 C689.8,350.1,689.9,352.1,689.9,354.2z"></path> <path class="st3" d="M730.7,341.7c0.3,1.1,0.4,2.1,0.5,2.9s0.1,1.8,0,2.9c-0.1,1.4-0.2,2.6-0.5,3.6s-0.7,1.7-1.3,2.3 c-0.6,0.6-1.3,1-2.3,1.3c-0.9,0.3-2.1,0.5-3.4,0.6c-0.9,0.1-2.1,0.1-3.4,0.2s-2.8,0.1-4.2,0.2c-1.4,0-2.8,0-4.1,0 s-2.4-0.1-3.2-0.1c-1-0.1-1.7-0.1-2.1,0c-0.4,0.1-0.7,0.2-0.9,0.5c-0.6,0.5-0.5,1.5,0.2,3c0.8,1.8,1.7,3.3,2.9,4.4 c1.2,1.2,2.3,1.8,3.3,1.8c1.5,0,2.9-0.4,4.2-1.3s2.3-1.9,3.2-3.1c0.3-0.4,0.5-0.7,0.7-0.9c0.2-0.2,0.5-0.4,0.8-0.6 c1-0.4,2-0.6,3.2-0.6c1.3,0,2.4,0.2,3.3,0.7c0.2,0.1,0.4,0.3,0.7,0.5c0.3,0.3,0.4,0.5,0.5,0.6c0.3,0.5,0.2,1-0.2,1.7 c-0.3,0.6-0.8,1.3-1.6,2.2c-0.8,0.9-1.6,1.6-2.3,2.1c-1.5,1.1-3.2,2-5.2,2.7s-4,1.1-6.2,1.3c-0.7,0.1-1.2,0.1-1.4,0.1 s-0.7,0-1.4-0.1c-2.5-0.2-4.7-0.9-6.6-2c-1.9-1.1-3.5-2.5-4.9-4.3c-1.3-1.7-2.3-3.7-3-5.9c-0.7-2.2-1.1-4.4-1.1-6.8 c0-2.7,0.4-5.3,1.3-7.7c0.9-2.4,2.1-4.6,3.8-6.5c1.6-1.9,3.5-3.5,5.8-4.7c2.2-1.3,4.7-2.1,7.4-2.6c0.3,0,0.7-0.1,1.3-0.1 c0.5,0,1.1,0,1.6,0c0.6,0,1.1,0,1.6,0s0.9,0,1.2,0.1C725.5,331.4,729.4,335.3,730.7,341.7z M720.7,347.6 c0.2-0.3,0.3-0.7,0.3-1.3c0.1-0.6,0.1-1.2,0.2-1.9c0-0.7,0-1.4,0-2c-0.1-0.7-0.1-1.2-0.2-1.7c-0.1-0.5-0.3-0.9-0.5-1.5 c-0.3-0.5-0.6-1.1-0.9-1.6c-0.4-0.5-0.7-0.9-1.2-1.3c-0.4-0.4-0.9-0.6-1.4-0.8c-0.9-0.2-1.7-0.2-2.5,0c-0.7,0.2-1.6,0.6-2.5,1.2 c-1.8,1.2-3.3,2.7-4.6,4.5c-1.2,1.8-2.1,3.8-2.5,6c-0.2,0.8-0.2,1.4-0.2,1.7c0,0.3,0.3,0.6,0.6,0.7c0.9,0.4,2.4,0.4,4.6,0.2 c0.4,0,0.8-0.1,1.2-0.2c0.5-0.1,0.8-0.1,1.1-0.1s0.6-0.1,1-0.1s0.8-0.1,1.1-0.1s0.7-0.1,1.1-0.1s0.9-0.1,1.2-0.1 c0.7,0,1.5-0.2,2.3-0.3C719.7,348.7,720.3,348.3,720.7,347.6z"></path> <path class="st3" d="M770.9,330.4c0.4,0.7,0.3,1.3-0.5,1.9c-0.7,0.7-1.9,1.2-3.6,1.4c-0.3,0.1-0.5,0.1-0.8,0.1s-0.5,0.1-0.6,0.1 c-1.8,0.5-3.5,1.5-5.1,3.1c-1.5,1.6-2.9,3.4-4.2,5.5c-1.2,2.1-2.3,4.2-3.2,6.3c-0.9,2.2-1.6,4.1-2,5.6c-0.1,0.4-0.3,1.1-0.6,2.2 c-0.3,1-0.7,2.1-1.1,3.2c-0.4,1.1-0.6,2-0.8,2.6s-0.4,1.2-0.5,1.6c-0.1,0.5-0.2,0.9-0.3,1.3s-0.2,0.8-0.3,1.4 c-0.2,1-0.3,1.6-0.5,2s-0.4,0.7-0.7,0.9c-0.6,0.5-1.3,0.8-2.3,1s-1.9,0.3-2.8,0.1c-2-0.3-3.1-1-3.5-2.1 c-0.1-0.3-0.1-0.7-0.1-1.4c0-0.7,0-1.8,0.1-3.5c0-0.4,0-1,0-2.1c0-1,0-2.3,0-3.7c0-1.5,0-3.1,0-4.9s0-3.6,0-5.5v-13.7l0.2-0.3 c0.5-0.7,1.3-1.2,2.4-1.5c0.2,0,0.5-0.1,0.8-0.1c0.4,0,0.7,0,1.1,0s0.8,0,1.1,0s0.7,0.1,0.9,0.1c0.8,0.3,1.4,0.6,1.9,1 s0.8,0.8,0.9,1.3c0,0.1,0.1,0.4,0.1,1s0,1.2,0,1.8c0,0.7,0.1,1.2,0.1,1.7s0,0.7,0.1,0.8c0.2,0.1,0.4-0.1,0.8-0.5 c0.4-0.4,1.1-1.3,2.1-2.5c1.8-2.3,4-4.1,6.7-5.5s5.5-2.2,8.4-2.3c1.3-0.1,2.5,0,3.5,0.3C770,329.2,770.6,329.7,770.9,330.4z"></path> <path class="st3" d="M805,341.7c0.3,1.1,0.4,2.1,0.5,2.9s0.1,1.8,0,2.9c-0.1,1.4-0.2,2.6-0.5,3.6s-0.7,1.7-1.3,2.3 c-0.6,0.6-1.3,1-2.3,1.3c-0.9,0.3-2.1,0.5-3.4,0.6c-0.9,0.1-2.1,0.1-3.4,0.2s-2.8,0.1-4.2,0.2c-1.4,0-2.8,0-4.1,0 s-2.4-0.1-3.2-0.1c-1-0.1-1.7-0.1-2.1,0c-0.4,0.1-0.7,0.2-0.9,0.5c-0.6,0.5-0.5,1.5,0.2,3c0.8,1.8,1.7,3.3,2.9,4.4 c1.2,1.2,2.3,1.8,3.3,1.8c1.5,0,2.9-0.4,4.2-1.3s2.3-1.9,3.2-3.1c0.3-0.4,0.5-0.7,0.7-0.9c0.2-0.2,0.5-0.4,0.8-0.6 c1-0.4,2-0.6,3.2-0.6c1.3,0,2.4,0.2,3.3,0.7c0.2,0.1,0.4,0.3,0.7,0.5c0.3,0.3,0.4,0.5,0.5,0.6c0.3,0.5,0.2,1-0.2,1.7 c-0.3,0.6-0.8,1.3-1.6,2.2c-0.8,0.9-1.6,1.6-2.3,2.1c-1.5,1.1-3.2,2-5.2,2.7s-4,1.1-6.2,1.3c-0.7,0.1-1.2,0.1-1.4,0.1 s-0.7,0-1.4-0.1c-2.5-0.2-4.7-0.9-6.6-2c-1.9-1.1-3.5-2.5-4.9-4.3c-1.3-1.7-2.3-3.7-3-5.9c-0.7-2.2-1.1-4.4-1.1-6.8 c0-2.7,0.4-5.3,1.3-7.7c0.9-2.4,2.1-4.6,3.8-6.5c1.6-1.9,3.5-3.5,5.8-4.7c2.2-1.3,4.7-2.1,7.4-2.6c0.3,0,0.7-0.1,1.3-0.1 c0.5,0,1.1,0,1.6,0c0.6,0,1.1,0,1.6,0s0.9,0,1.2,0.1C799.8,331.4,803.8,335.3,805,341.7z M795,347.6c0.2-0.3,0.3-0.7,0.3-1.3 c0.1-0.6,0.1-1.2,0.2-1.9c0-0.7,0-1.4,0-2c-0.1-0.7-0.1-1.2-0.2-1.7c-0.1-0.5-0.3-0.9-0.5-1.5c-0.3-0.5-0.6-1.1-0.9-1.6 c-0.4-0.5-0.7-0.9-1.2-1.3c-0.4-0.4-0.9-0.6-1.4-0.8c-0.9-0.2-1.7-0.2-2.5,0c-0.7,0.2-1.6,0.6-2.5,1.2c-1.8,1.2-3.3,2.7-4.6,4.5 c-1.2,1.8-2.1,3.8-2.5,6c-0.2,0.8-0.2,1.4-0.2,1.7c0,0.3,0.3,0.6,0.6,0.7c0.9,0.4,2.4,0.4,4.6,0.2c0.4,0,0.8-0.1,1.2-0.2 c0.5-0.1,0.8-0.1,1.1-0.1s0.6-0.1,1-0.1s0.8-0.1,1.1-0.1s0.7-0.1,1.1-0.1s0.9-0.1,1.2-0.1c0.7,0,1.5-0.2,2.3-0.3 C794,348.7,794.6,348.3,795,347.6z"></path> <path class="st3" d="M833.9,355.9c-0.5-1.9-0.8-3.6-0.9-5.1c-0.2-1.4-0.2-3.1-0.2-5.1c0.1-2.9,0.3-5.6,0.7-8.1s0.9-4.9,1.7-7.2 c1.3-4.1,3.3-7.3,5.8-9.6c2.6-2.3,6-3.6,10.4-3.7c3.6-0.2,6.8,0.6,9.3,2.4c1.9,1.3,3.4,2.9,4.5,4.9s1.8,4.1,1.9,6.4 c0,0.6-0.1,1.2-0.3,1.9c-0.2,0.7-0.5,1.3-0.8,1.9c-0.4,0.6-0.8,1.1-1.3,1.5s-1.1,0.7-1.7,0.9c-0.8,0.2-1.5,0.1-2.3,0 c-0.8-0.2-1.4-0.5-1.8-0.9c-0.1-0.1-0.2-0.2-0.3-0.4c-0.1-0.2-0.1-0.3-0.2-0.5c-0.1-0.2-0.1-0.5-0.2-0.9 c-0.1-0.4-0.2-0.8-0.3-1.2c-0.1-0.4-0.2-0.8-0.2-1.3c-0.1-0.4-0.1-0.7-0.1-0.8c0-0.7-0.1-1.5-0.4-2.5c-0.3-0.9-0.7-1.8-1.2-2.7 c-0.5-0.9-1.1-1.7-1.7-2.4c-0.7-0.7-1.4-1.1-2.1-1.2c-0.6-0.1-1.3,0.1-2.2,0.7s-1.7,1.2-2.3,1.9c-1.4,1.7-2.6,4.4-3.6,8 c-0.4,1.4-0.7,2.9-1,4.5s-0.5,3.3-0.6,4.9s-0.2,3.2-0.2,4.7s0.1,2.9,0.3,4.1c0.5,3.2,1.2,5.9,2.1,8c0.9,2.1,2.2,3.9,3.8,5.5 c1.5,1.5,2.8,2.2,3.9,2.1c1-0.2,1.9-0.8,2.6-1.7c0.7-1,1.4-2.1,1.9-3.3c0.5-1.3,1-2.5,1.3-3.8c0.4-1.3,0.6-2.3,0.8-3 c0.1-1,0.4-1.6,0.9-2.1c0.5-0.4,1.2-0.7,2.1-1c0.5-0.1,1.2-0.2,1.9-0.2c0.8,0,1.4,0.1,1.9,0.2c1.8,0.5,2.7,1.2,2.7,2.4 c0,0.2-0.1,0.6-0.2,1.1c-0.1,0.5-0.2,1.1-0.4,1.7s-0.3,1.3-0.5,1.9c-0.2,0.7-0.4,1.2-0.5,1.7c-0.5,1.5-1.1,2.8-1.8,4.1 c-0.7,1.3-1.5,2.4-2.5,3.5c-1,1-2.1,1.9-3.3,2.5c-1.3,0.7-2.7,1.2-4.3,1.5c-0.2,0-0.5,0.1-0.9,0.1s-0.9,0-1.4,0s-0.9,0-1.3,0 c-0.4,0-0.7,0-1-0.1c-2.1-0.3-4.1-1-5.9-1.9c-1.8-1-3.4-2.2-4.8-3.6c-1.4-1.4-2.6-3.1-3.6-4.9 C835.2,359.8,834.4,357.9,833.9,355.9z"></path> <path class="st3" d="M909.1,369c0.1,0.2,0.2,0.4,0.2,0.6c0,0.3-0.1,0.5-0.2,0.8c-0.2,0.4-0.6,0.8-1.1,1.1 c-0.5,0.3-1.1,0.6-1.7,0.8c-0.4,0.1-0.9,0.2-1.6,0.2c-0.7,0-1.3,0-1.7,0c-1-0.2-1.8-0.6-2.5-1.1s-1.2-1.1-1.6-1.8 c-0.4-0.7-0.8-1.4-1-2.3c-0.3-0.8-0.5-1.7-0.7-2.7c-0.2-0.7-0.4-1.2-0.5-1.4c-0.1-0.2-0.3-0.3-0.5-0.2c-0.2,0.1-0.5,0.4-0.9,1.1 c-1.5,2.2-3.1,4-4.8,5.3s-4,2-6.7,2c-2,0-3.6-0.4-4.8-1.2c-1.2-0.8-2.1-1.8-2.7-3.1c-0.6-1.3-1.1-2.7-1.3-4.3 c-0.2-1.6-0.4-3.2-0.5-4.8c-0.1-1.7-0.1-3.8,0-6.3s0.3-5.1,0.6-7.9c0.2-1.6,0.3-3,0.3-4.4c0-1.3,0-2.6,0-3.8c0-1,0-1.6,0-1.9 c0-0.2,0.1-0.5,0.2-0.7c0.3-0.7,1.1-1.3,2.5-1.7c0.5-0.1,1.1-0.2,1.9-0.2s1.5,0.1,1.9,0.2c0.7,0.2,1.3,0.5,1.9,0.8 c0.5,0.4,0.8,0.7,1,1.1c0,0.2,0,0.4,0,0.9c0,0.4,0,0.9,0,1.5s0,1.2,0,1.9c0,0.7,0,1.3,0,1.9c-0.1,0.6-0.1,1.3-0.2,2.1 c-0.1,0.9-0.1,1.6-0.2,2.2c-0.4,4-0.6,7.5-0.7,10.6c-0.1,3.1,0.1,5.5,0.5,7.2c0.1,0.4,0.2,0.7,0.2,0.8c0.1,0.1,0.1,0.2,0.2,0.3 c0.1,0.2,0.3,0.2,0.6,0.2c0.2,0,0.3,0,0.3,0c0.1,0,0.2-0.1,0.3-0.3c0.3-0.3,0.7-0.8,1.1-1.6c0.4-0.7,0.8-1.5,1.2-2.4 s0.8-1.7,1.1-2.6c0.4-0.8,0.6-1.5,0.8-1.9c0.5-1.3,0.9-2.6,1.3-3.8c0.4-1.2,0.7-2.5,1-3.9s0.6-2.8,0.8-4.4 c0.3-1.6,0.5-3.4,0.8-5.4c0.2-1.1,0.3-1.9,0.3-2.5c0.1-0.6,0.1-1.1,0.2-1.4c0-0.3,0.1-0.6,0.2-0.7c0-0.1,0.1-0.3,0.2-0.4 c0.3-0.6,0.9-1.1,1.8-1.4c0.9-0.3,1.8-0.5,2.8-0.5c0.6,0,1.2,0.1,1.8,0.2s1.1,0.3,1.6,0.6c0.4,0.3,0.6,0.4,0.8,0.6 c0.2,0.1,0.3,0.3,0.4,0.6c0.1,0.2,0.2,0.5,0.3,0.8s0.1,0.8,0.2,1.6c0,0.7,0,1.7,0,2.9c0,1.2,0,2.9-0.1,4.9c0,1.7,0,3.1,0,4.4 c0,1.2,0,2.4,0,3.4s0.1,2,0.2,3c0.1,1,0.2,2,0.3,3c0.3,2.1,0.6,4.2,0.9,6.1c0.4,2,0.7,3.5,1.1,4.6c0.2,0.4,0.3,0.8,0.5,1.2 c0.2,0.4,0.3,0.6,0.3,0.6c0.1,0,0.3,0.2,0.6,0.5C908.8,368.6,909,368.8,909.1,369z"></path> <path class="st3" d="M948,330.4c0.4,0.7,0.3,1.3-0.5,1.9c-0.7,0.7-1.9,1.2-3.6,1.4c-0.3,0.1-0.5,0.1-0.8,0.1s-0.5,0.1-0.6,0.1 c-1.8,0.5-3.5,1.5-5.1,3.1c-1.5,1.6-2.9,3.4-4.2,5.5c-1.2,2.1-2.3,4.2-3.2,6.3c-0.9,2.2-1.6,4.1-2,5.6c-0.1,0.4-0.3,1.1-0.6,2.2 c-0.3,1-0.7,2.1-1.1,3.2c-0.4,1.1-0.6,2-0.8,2.6s-0.4,1.2-0.5,1.6c-0.1,0.5-0.2,0.9-0.3,1.3s-0.2,0.8-0.3,1.4 c-0.2,1-0.3,1.6-0.5,2s-0.4,0.7-0.7,0.9c-0.6,0.5-1.3,0.8-2.3,1s-1.9,0.3-2.8,0.1c-2-0.3-3.1-1-3.5-2.1 c-0.1-0.3-0.1-0.7-0.1-1.4c0-0.7,0-1.8,0.1-3.5c0-0.4,0-1,0-2.1c0-1,0-2.3,0-3.7c0-1.5,0-3.1,0-4.9s0-3.6,0-5.5v-13.7l0.2-0.3 c0.5-0.7,1.3-1.2,2.4-1.5c0.2,0,0.5-0.1,0.8-0.1c0.4,0,0.7,0,1.1,0s0.8,0,1.1,0s0.7,0.1,0.9,0.1c0.8,0.3,1.4,0.6,1.9,1 s0.8,0.8,0.9,1.3c0,0.1,0.1,0.4,0.1,1s0,1.2,0,1.8c0,0.7,0.1,1.2,0.1,1.7s0,0.7,0.1,0.8c0.2,0.1,0.4-0.1,0.8-0.5 c0.4-0.4,1.1-1.3,2.1-2.5c1.8-2.3,4-4.1,6.7-5.5s5.5-2.2,8.4-2.3c1.3-0.1,2.5,0,3.5,0.3C947.1,329.2,947.7,329.7,948,330.4z"></path> <path class="st3" d="M958.4,337.8c0.8,0.2,1.5,0.5,2.1,0.9s1,0.8,1.2,1.3l0.2,0.5l-0.1,6.2c0,1.7,0,3.2,0,4.5s-0.1,2-0.1,2.1 s0,0.4,0,1s0,1.2,0,1.9c-0.1,0.7-0.1,1.6-0.2,2.6s-0.1,1.9-0.2,2.6c-0.1,1.8-0.2,3.4-0.3,4.7c-0.1,1.3-0.1,2.3,0,2.8 c0,0.8-0.1,1.3-0.4,1.6c-0.3,0.3-0.8,0.6-1.6,0.9c-0.4,0.1-1,0.2-1.6,0.2c-0.7,0-1.3,0-1.7-0.1c-2-0.4-3.3-1.1-3.9-2.1 c-0.1-0.3-0.2-0.5-0.2-0.6c0-0.2,0-0.6,0-1.3c0-0.9,0-1.9,0.1-3.2c0.1-1.2,0.2-2.5,0.3-3.8c0-0.6,0.1-1.2,0.1-2s0.1-1.4,0.1-2.1 c0-0.6,0-1.3,0-2.2c0-0.8,0.1-1.5,0.1-2.1s0.1-1.5,0.1-2.8s0-2.6,0.1-3.8c0-1.3,0-2.4,0-3.1s0-1.4,0-1.8s0.1-0.7,0.1-0.9 c0-0.2,0.1-0.3,0.2-0.5c0.3-0.8,1.1-1.4,2.4-1.7c0.4-0.1,0.9-0.2,1.6-0.2S957.9,337.7,958.4,337.8z M962,322v0.9 c-0.1,0.2-0.1,0.5-0.1,1.1s-0.1,1.2-0.1,1.9c0,0.7,0,1.3-0.1,1.9s-0.1,0.9-0.1,1c-0.2,0.8-0.8,1.3-2.1,1.7 c-0.4,0.1-0.9,0.2-1.6,0.2c-0.7,0.1-1.3,0-1.7-0.1c-1.1-0.2-2-0.5-2.7-1s-1.2-1-1.4-1.6c0-0.1,0-0.4,0-0.8s0-0.9,0-1.4 c0-0.6,0-1.1,0.1-1.7c0-0.6,0.1-1.1,0.2-1.6c0-1,0.2-1.7,0.6-2.1c0.3-0.5,1-0.8,1.9-1.1c0.4-0.1,1-0.2,1.7-0.2s1.4,0.1,1.8,0.2 C960.5,319.9,961.7,320.8,962,322z"></path> <path class="st3" d="M999.6,343c0,0.3,0.1,0.8,0.2,1.6c0,0.7,0.1,1.5,0.1,2.4c0,0.8,0,1.6,0,2.4s0,1.4,0,1.8 c-0.1,2.5-0.5,4.9-1.2,7.3s-1.7,4.5-3.1,6.4c-1.3,1.9-3,3.5-5,4.7s-4.3,2-7,2.2c-0.6,0-1.1,0.1-1.4,0.1s-0.8,0-1.4-0.1 c-2.9-0.3-5.4-1.3-7.4-3c-2.1-1.8-3.5-4-4.4-6.8c-0.5-1.5-0.9-3.1-1.1-4.8c-0.2-1.7-0.3-3.4-0.2-4.9c0.2-2.6,0.6-5.3,1.3-8.1 c0.7-2.8,1.8-5.3,3.2-7.6c1.4-2.3,3.2-4.2,5.4-5.7c2.2-1.5,4.8-2.2,7.8-2.2c2.3,0,4.3,0.4,5.9,1.1c1.7,0.8,3.1,1.8,4.2,3.1 c1.1,1.3,2,2.8,2.7,4.6C998.8,339.1,999.3,341,999.6,343z M989.7,355.9c0.3-1.1,0.4-2.1,0.5-3.2s0.1-2.2,0.1-3.3 c0-1.1-0.1-2.3-0.3-3.6c-0.2-1.3-0.4-2.7-0.7-4.3c-0.1-0.5-0.2-1.2-0.4-2c-0.2-0.8-0.5-1.6-0.9-2.4s-0.8-1.4-1.3-2 s-1.1-0.8-1.7-0.8c-0.5,0-0.9,0.2-1.3,0.5s-0.8,0.7-1.2,1.2s-0.7,0.9-1,1.4s-0.5,0.9-0.7,1.3c-2.1,4.2-3.3,8.6-3.6,13.4 c-0.2,1.8-0.1,3.7,0.3,5.7c0.3,2,0.8,3.6,1.6,4.9c0.4,0.7,0.8,1.4,1.3,1.9c0.5,0.6,0.9,1,1.3,1.3c0.2,0.1,0.4,0.2,0.7,0.2 c0.3,0,0.6,0,0.8-0.1c0.3-0.1,0.6-0.3,1.1-0.6c0.5-0.3,0.9-0.7,1.3-1.1c0.9-1,1.7-2.2,2.5-3.7S989.3,357.5,989.7,355.9z"></path> <path class="st3" d="M1025.4,353.2c2.3,2.8,3.3,5.6,3,8.3c-0.3,2-0.9,3.6-2.1,5c-1.1,1.3-2.6,2.4-4.4,3.3 c-1.4,0.7-3,1.2-4.8,1.5s-3.5,0.4-5.1,0.3c-1.1-0.1-2.4-0.3-3.8-0.7c-1.4-0.4-2.5-1.1-3.2-2.1c-0.2-0.3-0.3-0.4-0.3-0.5 s0-0.3,0-0.6c0-0.7,0.3-1.3,0.8-1.9c0.4-0.5,0.9-0.8,1.4-1c0.6-0.2,1.3-0.2,2.1-0.1c0.5,0.1,1,0.2,1.4,0.3 c0.5,0.2,0.9,0.4,1.2,0.6c0.6,0.4,1.1,0.6,1.5,0.6c0.4,0.1,0.9,0.1,1.4,0c1-0.3,1.9-0.7,2.6-1.4c0.7-0.7,1.2-1.5,1.4-2.5 c0.2-0.5,0.2-1.1,0.2-1.7s-0.1-1.2-0.2-1.6c-0.5-1.7-1.3-3-2.3-3.9s-2.3-1.9-3.7-2.8c-1.2-0.7-2-1.2-2.5-1.6s-1-0.8-1.4-1.2 c-0.6-0.5-1-1-1.3-1.4s-0.6-0.9-0.8-1.4c-0.6-1.2-0.9-2.3-0.9-3.5s0.4-2.5,1.1-4c0.6-1.2,1.3-2.3,2.2-3.4c0.9-1.1,1.9-2.1,3-3 s2.2-1.6,3.3-2.3c1.2-0.6,2.3-1.1,3.4-1.3c0.6-0.1,1.3-0.2,2.3-0.2s1.7,0.1,2.2,0.2c1.4,0.3,2.1,0.8,2.3,1.6 c0.1,0.4-0.1,0.9-0.6,1.5s-1,1-1.6,1.3c-1.5,0.7-2.8,1.5-3.9,2.4s-2.1,2-3,3.5c-0.4,0.7-0.7,1.4-1,2.1c-0.2,0.7-0.3,1.3-0.3,1.8 c0,0.6,0.2,1.2,0.5,2.1c0.3,0.5,0.7,1,1.2,1.5c0.6,0.5,1.5,1.2,2.8,2c0.9,0.6,1.6,1,2.1,1.4c0.6,0.4,1,0.7,1.4,1.1 c0.4,0.3,0.7,0.6,1,0.9C1024.8,352.6,1025.1,352.9,1025.4,353.2z"></path> <path class="st3" d="M1040.1,337.8c0.8,0.2,1.5,0.5,2.1,0.9s1,0.8,1.2,1.3l0.2,0.5l-0.1,6.2c0,1.7,0,3.2,0,4.5s-0.1,2-0.1,2.1 s0,0.4,0,1s0,1.2,0,1.9c-0.1,0.7-0.1,1.6-0.2,2.6s-0.1,1.9-0.2,2.6c-0.1,1.8-0.2,3.4-0.3,4.7c-0.1,1.3-0.1,2.3,0,2.8 c0,0.8-0.1,1.3-0.4,1.6c-0.3,0.3-0.8,0.6-1.6,0.9c-0.4,0.1-1,0.2-1.6,0.2c-0.7,0-1.3,0-1.7-0.1c-2-0.4-3.3-1.1-3.9-2.1 c-0.1-0.3-0.2-0.5-0.2-0.6c0-0.2,0-0.6,0-1.3c0-0.9,0-1.9,0.1-3.2c0.1-1.2,0.2-2.5,0.3-3.8c0-0.6,0.1-1.2,0.1-2s0.1-1.4,0.1-2.1 c0-0.6,0-1.3,0-2.2c0-0.8,0.1-1.5,0.1-2.1s0.1-1.5,0.1-2.8s0-2.6,0.1-3.8c0-1.3,0-2.4,0-3.1s0-1.4,0-1.8s0.1-0.7,0.1-0.9 c0-0.2,0.1-0.3,0.2-0.5c0.3-0.8,1.1-1.4,2.4-1.7c0.4-0.1,0.9-0.2,1.6-0.2S1039.6,337.7,1040.1,337.8z M1043.7,322v0.9 c-0.1,0.2-0.1,0.5-0.1,1.1s-0.1,1.2-0.1,1.9c0,0.7,0,1.3-0.1,1.9s-0.1,0.9-0.1,1c-0.2,0.8-0.8,1.3-2.1,1.7 c-0.4,0.1-0.9,0.2-1.6,0.2c-0.7,0.1-1.3,0-1.7-0.1c-1.1-0.2-2-0.5-2.7-1s-1.2-1-1.4-1.6c0-0.1,0-0.4,0-0.8s0-0.9,0-1.4 c0-0.6,0-1.1,0.1-1.7c0-0.6,0.1-1.1,0.2-1.6c0-1,0.2-1.7,0.6-2.1c0.3-0.5,1-0.8,1.9-1.1c0.4-0.1,1-0.2,1.7-0.2s1.4,0.1,1.8,0.2 C1042.2,319.9,1043.4,320.8,1043.7,322z"></path> <path class="st3" d="M1062,339.7c-0.1,0.2-0.2,1.1-0.3,2.7c-0.1,1.6-0.3,4.1-0.5,7.4c-0.1,0.8-0.1,1.6-0.1,2.5s0,1.8,0,2.7 c0,0.9,0,1.6,0,2.4c0,0.7,0,1.2,0.1,1.5c0.3,2.2,0.9,4.1,1.7,5.8c0.9,1.7,2.2,3.1,4,4.3c0.3,0.2,0.5,0.4,0.7,0.7 c0.2,0.3,0.4,0.5,0.5,0.6c0.2,0.5,0.1,0.9-0.2,1.3c-0.3,0.4-0.7,0.8-1.3,1.1c-0.6,0.3-1.3,0.5-2,0.6c-0.8,0.1-1.6,0.1-2.4,0 c-0.9-0.1-1.6-0.4-2.4-0.8c-0.7-0.4-1.6-1.1-2.8-2.1c-2.3-2.1-3.9-4.4-4.6-6.9s-1.1-5.2-1.1-8.2c0-0.8,0-1.4,0-2s0-1.2,0.1-2 c0-0.7,0.1-1.6,0.2-2.6c0-1,0.1-2.3,0.2-3.8c0.1-1.6,0.2-2.8,0.3-3.6c0.1-0.8,0.1-1.4,0.1-1.7c0-0.4,0-0.6,0-0.6 s-0.1-0.1-0.1-0.2c-0.2-0.3-0.7-0.6-1.5-0.8c-0.2-0.1-0.3-0.2-0.5-0.2s-0.4-0.1-0.5-0.2c-0.2-0.2-0.3-0.2-0.5-0.2 s-0.4-0.1-0.8-0.3c-0.4-0.2-0.6-0.4-0.8-0.6c-0.5-0.5-0.4-1,0.1-1.6c0.5-0.5,1.4-0.9,2.6-1.2c0.6-0.2,1-0.3,1.3-0.4 s0.5-0.3,0.8-0.6c0.3-0.3,0.4-0.4,0.5-0.5c0-0.1,0.1-0.2,0.2-0.5c0-0.2,0-0.5,0.1-1c0-0.5,0.1-1.1,0.2-1.7 c0.1-0.8,0.2-1.5,0.2-2s0.1-1,0.2-1.4c0-0.5,0.1-0.9,0.2-1.5c0-0.5,0.1-1.2,0.2-2.1c0.1-1.2,0.2-2.1,0.3-2.6 c0.1-0.5,0.1-0.8,0.2-1c0.2-0.5,0.6-0.9,1.2-1.3s1.3-0.6,2.1-0.8c1-0.2,2.1-0.2,3.1,0.1c1.1,0.3,1.8,0.7,2.4,1.2 c0.3,0.3,0.5,0.6,0.6,0.8c0.1,0.3,0.1,0.7,0,1.4c-0.1,0.4-0.1,0.9-0.2,1.6s-0.1,1.4-0.2,2.1s-0.2,1.5-0.2,2.3 c-0.1,0.8-0.1,1.5-0.2,2s-0.1,0.9-0.2,1.3s-0.1,0.6-0.1,0.6c0,0.1,0,0.2,0,0.3c0,0.2,0,0.3-0.1,0.5c-0.2,0.7,0,1.3,0.5,1.7 c0.3,0.3,0.5,0.4,0.9,0.5c0.3,0.1,0.8,0.2,1.5,0.2c1.3,0.1,2.3,0.3,3,0.5c1.5,0.6,2.2,1.4,2,2.4s-1.1,1.7-2.8,2.2 c-0.4,0.1-0.9,0.2-1.6,0.2s-1.3,0-1.9-0.1C1063.1,338.3,1062.4,338.7,1062,339.7z"></path> <path class="st3" d="M1102.2,339.4c0.7,5.7,1.1,10.8,1.2,15.3c0.2,4.5,0,8.1-0.4,11c-0.3,2.5-0.8,4.9-1.5,7.3s-1.6,4.5-2.9,6.5 c-1.2,1.9-2.8,3.6-4.6,5c-1.8,1.4-4.1,2.4-6.7,2.9c-0.2,0-0.5,0.1-0.9,0.1s-0.9,0-1.4,0s-0.9,0-1.3,0s-0.7,0-0.8,0 c-0.3,0-0.6-0.1-1.1-0.2c-1.5-0.3-2.9-0.7-4.1-1.5c-1.2-0.7-2-1.5-2.2-2.3c-0.2-0.6,0-1.1,0.5-1.6s1.1-0.9,2.1-1.2 c0.4-0.1,0.7-0.2,0.9-0.2c0.2,0,0.7,0,1.5,0s1.3,0,1.5,0s0.5,0.1,0.8,0.2c0.2,0.1,0.4,0.2,0.7,0.3c0.3,0.1,0.5,0.2,0.6,0.3 c0.5,0.4,1,0.5,1.4,0.5c0.5,0,1-0.2,1.5-0.6s1-0.9,1.5-1.6c0.5-0.6,0.9-1.2,1.3-1.9c0.4-0.6,0.6-1.2,0.8-1.6 c0.6-1.1,1-2.2,1.4-3.3s0.7-2.4,1-3.9c0.2-1,0.3-1.5,0.2-1.7c-0.1-0.2-0.4-0.1-1,0.2c-1.2,0.7-2.4,1.2-3.7,1.5 c-1.3,0.3-2.6,0.4-4,0.3c-2.2-0.3-3.9-0.9-5.2-1.9c-1.3-1-2.3-2.3-3-3.7c-0.7-1.5-1.1-3.1-1.3-4.9c-0.2-1.8-0.3-3.5-0.3-5.3 c0-2,0-3.8,0.2-5.3c0.1-1.5,0.3-3.1,0.5-4.7c0.2-1,0.4-2.3,0.5-3.8s0.2-2.8,0.2-3.8c0-0.6,0-1,0.1-1.2c0.1-0.3,0.2-0.5,0.5-0.8 s0.6-0.5,1.1-0.8s0.9-0.4,1.4-0.5s1.2-0.1,1.9-0.1c0.8,0,1.4,0.1,1.8,0.2c1.2,0.4,2.1,0.9,2.5,1.6c0.1,0.3,0.2,0.6,0.2,1.2 c0,0.5,0,1.5-0.1,2.8s-0.2,2.4-0.2,3.2c-0.1,0.8-0.2,1.7-0.3,2.6c-0.3,1.7-0.4,3.3-0.5,4.7c-0.1,1.4-0.2,3.1-0.2,5 c0,0.3,0,0.9,0,1.9s0.1,2,0.2,3s0.3,2,0.5,2.8s0.5,1.2,1,1.2c0.3,0,0.5-0.2,0.8-0.6s0.6-0.8,0.8-1.3c0.3-0.5,0.5-1,0.7-1.5 s0.3-0.8,0.4-1c0.5-1.4,1-3.1,1.4-4.9c0.5-1.8,0.8-3.7,1.2-5.7c0.3-1.9,0.6-3.9,0.8-5.8c0.2-1.9,0.3-3.6,0.3-5.1 c-0.1-0.9-0.1-1.4,0-1.6c0-0.2,0.1-0.4,0.2-0.6c0.3-0.7,0.9-1.1,1.8-1.4s1.8-0.5,2.8-0.5c0.9,0,1.8,0.1,2.6,0.4 c0.8,0.3,1.4,0.7,1.8,1.3c0.1,0.2,0.2,0.4,0.2,0.6s0.1,0.5,0.1,1.1c0,0.4,0.1,0.9,0.2,1.6C1102,338,1102.1,338.7,1102.2,339.4z"></path> <path class="st3" d="M1179.6,356.8c0,0.8,0.1,1.5,0.1,2.1s0.1,1.1,0.1,1.6s0.1,0.9,0.1,1.3s0.1,0.8,0.1,1.3 c0.1,1.2,0.2,2.1,0.3,2.8c0.1,0.7,0.2,1.2,0.3,1.5c0.6,1.5-0.3,2.5-2.5,3.2c-0.3,0.1-0.6,0.2-0.8,0.2c-0.3,0-0.7,0-1.3,0 c-0.6,0-1,0-1.2,0c-0.3,0-0.5,0-0.8-0.2c-1.3-0.4-2.1-1-2.5-1.7c-0.2-0.4-0.4-1.1-0.5-2.2c-0.2-1.1-0.3-2.3-0.4-3.6 s-0.2-2.5-0.3-3.7c-0.1-1.2-0.1-2.1-0.1-2.6c-0.1-0.5-0.1-1.4-0.3-2.7c-0.1-1.3-0.3-2.7-0.4-4.2c-0.1-1.4-0.3-3.3-0.5-5.5 c-0.1-0.2-0.3-0.1-0.5,0.1c-0.1,0.1-0.3,0.6-0.8,1.6c-0.5,0.9-1,2-1.5,3.1s-1,2.2-1.5,3.2s-0.8,1.6-0.9,1.9 c-0.2,0.5-0.4,1-0.6,1.5s-0.4,1.1-0.6,1.7s-0.4,1.4-0.6,2.2c-0.2,0.8-0.5,1.9-0.8,3.1c-0.2,0.8-0.4,1.7-0.7,2.8 c-0.3,1-0.6,1.8-0.8,2.2c-0.5,1-1.4,1.6-2.7,2c-0.4,0.1-1,0.2-1.8,0.2s-1.4,0-1.9-0.1c-1.1-0.2-2-0.5-2.5-1.1 c-0.3-0.3-0.6-0.6-0.8-1.1s-0.5-1.3-1-2.5c-0.2-0.5-0.4-1-0.6-1.7c-0.3-0.7-0.5-1.3-0.8-1.9c-0.2-0.7-0.4-1.3-0.6-1.8 s-0.4-1.1-0.6-1.6s-0.4-1.1-0.6-1.7s-0.5-1.3-0.8-2.1c-0.6-1.7-0.9-2.8-1.1-3.3s-0.4-0.8-0.5-0.8s-0.1,0-0.1,0.1s0,0.2,0,0.5 s0,0.8,0,1.4s0,1.5,0,2.5c0,1.3,0,2.5,0,3.8s0,2.2,0,2.7c-0.1,0.7-0.1,1.5-0.2,2.3s-0.1,1.6-0.2,2.3c-0.1,0.7-0.1,1.3-0.2,1.8 s-0.1,0.8-0.1,0.9c-0.1,0.4-0.3,0.8-0.7,1.3s-0.7,0.9-1,1.2c-0.6,0.4-1.3,0.7-2.1,0.9c-0.9,0.2-1.7,0.1-2.5-0.1 c-1.4-0.4-2.4-1.3-2.8-2.8c-0.1-0.3-0.2-0.8-0.2-1.4s0-1.7,0.2-3.3c0-0.6,0.1-1.2,0.1-1.6c0-0.5,0-1.1,0.1-1.7 c0-0.7,0-1.5,0-2.5s0-2.3,0-3.8c0-3.1,0-6.2-0.1-9.2s-0.1-6.1-0.2-9.2c0-1.5,0-2.7,0-3.6s-0.1-1.8-0.1-2.5 c-0.1-0.7-0.1-1.4-0.2-2s-0.2-1.4-0.3-2.2c-0.2-1.4-0.2-2.4-0.3-3.1c0-0.6,0-1.1,0.1-1.3c0.1-0.3,0.3-0.5,0.6-0.8 c0.3-0.3,0.6-0.5,1-0.7c1-0.5,2.1-0.8,3.2-0.8c1.9,0,3.4,0.5,4.5,1.4c0.3,0.3,0.6,0.5,0.8,0.9c0.3,0.3,0.5,0.8,0.8,1.3 c0.3,0.6,0.5,1.3,0.8,2.1s0.7,1.9,1.1,3.2c0.2,0.5,0.4,1.1,0.6,1.8c0.3,0.8,0.5,1.4,0.8,2s0.5,1.3,0.8,2.2 c0.3,0.9,0.5,1.6,0.8,2.3c0.3,0.7,0.5,1.3,0.7,2.1c0.2,0.7,0.4,1.3,0.6,1.7c0.2,0.5,0.3,0.9,0.5,1.4s0.4,1,0.6,1.5 s0.3,0.9,0.5,1.2c0.1,0.3,0.2,0.5,0.2,0.6c0,0.2,0.2,0.7,0.4,1.4c0.2,0.7,0.5,1.5,0.8,2.3s0.6,1.5,1,2.2c0.3,0.6,0.6,1,0.8,1 c0.2,0,0.4-0.1,0.6-0.4c0.1-0.2,0.4-0.7,0.8-1.6c0.5-0.9,1-1.9,1.5-3.1c0.6-1.1,1.1-2.3,1.6-3.4s0.9-2,1.1-2.5s0.5-1.2,0.8-2.2 c0.4-1,0.7-2,1-3c0.4-1.1,0.7-1.9,0.9-2.6c0.3-0.7,0.5-1.3,0.6-1.8c0.2-0.5,0.4-1,0.6-1.5s0.4-1,0.6-1.6c0.4-1,0.8-2,1.2-3 c0.4-1,0.9-2.2,1.4-3.7c0.6-1.5,1.2-2.5,1.9-3.2c0.7-0.6,1.9-1,3.6-1c1,0,1.9,0.2,2.7,0.5c0.8,0.3,1.4,0.7,1.8,1.3 c0.2,0.3,0.3,0.5,0.3,0.8s0.1,0.8,0.2,1.6c0.1,1.1,0.2,2,0.2,2.9s0.1,1.6,0.2,2.2c0.1,0.3,0.1,0.8,0.1,1.5s0,1.4,0,2.1 s0.1,1.5,0.1,2.4s0.1,1.7,0.1,2.3c0.1,1.7,0.2,3.4,0.2,5.2c0,1.7,0,3.4,0,5.2c0,0.1,0,0.4,0,1s0.1,1.3,0.1,2.1 c0,0.8,0,1.7,0.1,2.7c0,1,0.1,1.7,0.2,2.3c0,0.6,0.1,1.2,0.2,1.9C1179.5,355.8,1179.5,356.4,1179.6,356.8z"></path> <path class="st3" d="M1221.9,341.7c0.3,1.1,0.4,2.1,0.5,2.9c0,0.8,0,1.8,0,2.9c-0.1,1.4-0.2,2.6-0.5,3.6s-0.7,1.7-1.3,2.3 c-0.6,0.6-1.3,1-2.3,1.3c-0.9,0.3-2.1,0.5-3.4,0.6c-0.9,0.1-2.1,0.1-3.4,0.2c-1.4,0.1-2.8,0.1-4.2,0.2c-1.4,0-2.8,0-4.1,0 c-1.3,0-2.4-0.1-3.2-0.1c-1-0.1-1.7-0.1-2.1,0s-0.7,0.2-0.9,0.5c-0.6,0.5-0.5,1.5,0.2,3c0.8,1.8,1.7,3.3,2.9,4.4 c1.2,1.2,2.3,1.8,3.3,1.8c1.5,0,2.9-0.4,4.2-1.3c1.3-0.9,2.3-1.9,3.2-3.1c0.3-0.4,0.5-0.7,0.7-0.9c0.2-0.2,0.5-0.4,0.8-0.6 c1-0.4,2-0.6,3.2-0.6c1.3,0,2.4,0.2,3.3,0.7c0.2,0.1,0.4,0.3,0.7,0.5c0.3,0.3,0.4,0.5,0.5,0.6c0.3,0.5,0.2,1-0.2,1.7 c-0.3,0.6-0.8,1.3-1.6,2.2c-0.8,0.9-1.6,1.6-2.3,2.1c-1.5,1.1-3.2,2-5.2,2.7s-4,1.1-6.2,1.3c-0.7,0.1-1.2,0.1-1.4,0.1 c-0.2,0-0.7,0-1.4-0.1c-2.5-0.2-4.7-0.9-6.6-2s-3.5-2.5-4.9-4.3c-1.3-1.7-2.3-3.7-3-5.9c-0.7-2.2-1.1-4.4-1.1-6.8 c0-2.7,0.4-5.3,1.3-7.7c0.9-2.4,2.1-4.6,3.8-6.5c1.6-1.9,3.5-3.5,5.8-4.7c2.2-1.3,4.7-2.1,7.4-2.6c0.3,0,0.7-0.1,1.3-0.1 c0.5,0,1.1,0,1.6,0c0.6,0,1.1,0,1.6,0s0.9,0,1.2,0.1C1216.8,331.4,1220.7,335.3,1221.9,341.7z M1211.9,347.6 c0.2-0.3,0.3-0.7,0.3-1.3c0.1-0.6,0.1-1.2,0.2-1.9c0-0.7,0-1.4,0-2c-0.1-0.7-0.1-1.2-0.2-1.7s-0.3-0.9-0.5-1.5 c-0.3-0.5-0.6-1.1-0.9-1.6c-0.4-0.5-0.7-0.9-1.2-1.3c-0.4-0.4-0.9-0.6-1.4-0.8c-0.9-0.2-1.7-0.2-2.5,0c-0.7,0.2-1.6,0.6-2.5,1.2 c-1.8,1.2-3.3,2.7-4.6,4.5c-1.2,1.8-2.1,3.8-2.5,6c-0.2,0.8-0.2,1.4-0.2,1.7c0.1,0.3,0.3,0.6,0.6,0.7c0.9,0.4,2.4,0.4,4.6,0.2 c0.4,0,0.8-0.1,1.2-0.2c0.5-0.1,0.8-0.1,1.1-0.1c0.3,0,0.6-0.1,1-0.1s0.8-0.1,1.1-0.1c0.3,0,0.7-0.1,1.1-0.1 c0.5,0,0.9-0.1,1.2-0.1c0.7,0,1.5-0.2,2.3-0.3C1210.9,348.7,1211.5,348.3,1211.9,347.6z"></path> <path class="st3" d="M1263,341.7c0.3,1.1,0.4,2.1,0.5,2.9c0,0.8,0,1.8,0,2.9c-0.1,1.4-0.2,2.6-0.5,3.6s-0.7,1.7-1.3,2.3 c-0.6,0.6-1.3,1-2.3,1.3c-0.9,0.3-2.1,0.5-3.4,0.6c-0.9,0.1-2.1,0.1-3.4,0.2c-1.4,0.1-2.8,0.1-4.2,0.2c-1.4,0-2.8,0-4.1,0 c-1.3,0-2.4-0.1-3.2-0.1c-1-0.1-1.7-0.1-2.1,0s-0.7,0.2-0.9,0.5c-0.6,0.5-0.5,1.5,0.2,3c0.8,1.8,1.7,3.3,2.9,4.4 c1.2,1.2,2.3,1.8,3.3,1.8c1.5,0,2.9-0.4,4.2-1.3c1.3-0.9,2.3-1.9,3.2-3.1c0.3-0.4,0.5-0.7,0.7-0.9c0.2-0.2,0.5-0.4,0.8-0.6 c1-0.4,2-0.6,3.2-0.6c1.3,0,2.4,0.2,3.3,0.7c0.2,0.1,0.4,0.3,0.7,0.5c0.3,0.3,0.4,0.5,0.5,0.6c0.3,0.5,0.2,1-0.2,1.7 c-0.3,0.6-0.8,1.3-1.6,2.2c-0.8,0.9-1.6,1.6-2.3,2.1c-1.5,1.1-3.2,2-5.2,2.7s-4,1.1-6.2,1.3c-0.7,0.1-1.2,0.1-1.4,0.1 c-0.2,0-0.7,0-1.4-0.1c-2.5-0.2-4.7-0.9-6.6-2s-3.5-2.5-4.9-4.3c-1.3-1.7-2.3-3.7-3-5.9c-0.7-2.2-1.1-4.4-1.1-6.8 c0-2.7,0.4-5.3,1.3-7.7c0.9-2.4,2.1-4.6,3.8-6.5c1.6-1.9,3.5-3.5,5.8-4.7c2.2-1.3,4.7-2.1,7.4-2.6c0.3,0,0.7-0.1,1.3-0.1 c0.5,0,1.1,0,1.6,0c0.6,0,1.1,0,1.6,0s0.9,0,1.2,0.1C1257.9,331.4,1261.8,335.3,1263,341.7z M1253,347.6 c0.2-0.3,0.3-0.7,0.3-1.3c0.1-0.6,0.1-1.2,0.2-1.9c0-0.7,0-1.4,0-2c-0.1-0.7-0.1-1.2-0.2-1.7s-0.3-0.9-0.5-1.5 c-0.3-0.5-0.6-1.1-0.9-1.6c-0.4-0.5-0.7-0.9-1.2-1.3c-0.4-0.4-0.9-0.6-1.4-0.8c-0.9-0.2-1.7-0.2-2.5,0c-0.7,0.2-1.6,0.6-2.5,1.2 c-1.8,1.2-3.3,2.7-4.6,4.5c-1.2,1.8-2.1,3.8-2.5,6c-0.2,0.8-0.2,1.4-0.2,1.7c0.1,0.3,0.3,0.6,0.6,0.7c0.9,0.4,2.4,0.4,4.6,0.2 c0.4,0,0.8-0.1,1.2-0.2c0.5-0.1,0.8-0.1,1.1-0.1c0.3,0,0.6-0.1,1-0.1s0.8-0.1,1.1-0.1c0.3,0,0.7-0.1,1.1-0.1 c0.5,0,0.9-0.1,1.2-0.1c0.7,0,1.5-0.2,2.3-0.3C1252,348.7,1252.6,348.3,1253,347.6z"></path> <path class="st3" d="M1282.1,339.7c-0.1,0.2-0.2,1.1-0.3,2.7c-0.1,1.6-0.3,4.1-0.5,7.4c-0.1,0.8-0.1,1.6-0.1,2.5s0,1.8,0,2.7 c0,0.9,0,1.6,0,2.4c0,0.7,0,1.2,0.1,1.5c0.3,2.2,0.9,4.1,1.7,5.8c0.9,1.7,2.2,3.1,4,4.3c0.3,0.2,0.5,0.4,0.7,0.7 c0.2,0.3,0.4,0.5,0.5,0.6c0.2,0.5,0.1,0.9-0.2,1.3c-0.3,0.4-0.7,0.8-1.3,1.1c-0.6,0.3-1.3,0.5-2,0.6c-0.8,0.1-1.6,0.1-2.4,0 c-0.9-0.1-1.6-0.4-2.4-0.8c-0.7-0.4-1.6-1.1-2.8-2.1c-2.3-2.1-3.9-4.4-4.6-6.9s-1.1-5.2-1.1-8.2c0-0.8,0-1.4,0-2s0-1.2,0.1-2 c0-0.7,0.1-1.6,0.2-2.6c0-1,0.1-2.3,0.2-3.8c0.1-1.6,0.2-2.8,0.3-3.6c0.1-0.8,0.1-1.4,0.1-1.7c0-0.4,0-0.6,0-0.6 s-0.1-0.1-0.1-0.2c-0.2-0.3-0.7-0.6-1.5-0.8c-0.2-0.1-0.3-0.2-0.5-0.2s-0.4-0.1-0.5-0.2c-0.2-0.2-0.3-0.2-0.5-0.2 s-0.4-0.1-0.8-0.3c-0.4-0.2-0.6-0.4-0.8-0.6c-0.5-0.5-0.4-1,0.1-1.6c0.5-0.5,1.4-0.9,2.6-1.2c0.6-0.2,1-0.3,1.3-0.4 s0.5-0.3,0.8-0.6c0.3-0.3,0.4-0.4,0.5-0.5c0-0.1,0.1-0.2,0.2-0.5c0-0.2,0-0.5,0.1-1c0-0.5,0.1-1.1,0.2-1.7 c0.1-0.8,0.2-1.5,0.2-2s0.1-1,0.2-1.4c0-0.5,0.1-0.9,0.2-1.5c0-0.5,0.1-1.2,0.2-2.1c0.1-1.2,0.2-2.1,0.3-2.6 c0.1-0.5,0.1-0.8,0.2-1c0.2-0.5,0.6-0.9,1.2-1.3s1.3-0.6,2.1-0.8c1-0.2,2.1-0.2,3.1,0.1c1.1,0.3,1.8,0.7,2.4,1.2 c0.3,0.3,0.5,0.6,0.6,0.8c0.1,0.3,0.1,0.7,0,1.4c-0.1,0.4-0.1,0.9-0.2,1.6s-0.1,1.4-0.2,2.1s-0.2,1.5-0.2,2.3 c-0.1,0.8-0.1,1.5-0.2,2s-0.1,0.9-0.2,1.3s-0.1,0.6-0.1,0.6c0,0.1,0,0.2,0,0.3c0,0.2,0,0.3-0.1,0.5c-0.2,0.7,0,1.3,0.5,1.7 c0.3,0.3,0.5,0.4,0.9,0.5c0.3,0.1,0.8,0.2,1.5,0.2c1.3,0.1,2.3,0.3,3,0.5c1.5,0.6,2.2,1.4,2,2.4s-1.1,1.7-2.8,2.2 c-0.4,0.1-0.9,0.2-1.6,0.2s-1.3,0-1.9-0.1C1283.3,338.3,1282.5,338.7,1282.1,339.7z"></path> <path class="st3" d="M1314.4,353.2c2.3,2.8,3.3,5.6,3,8.3c-0.3,2-0.9,3.6-2.1,5c-1.1,1.3-2.6,2.4-4.4,3.3 c-1.4,0.7-3,1.2-4.8,1.5s-3.5,0.4-5.1,0.3c-1.1-0.1-2.4-0.3-3.8-0.7c-1.4-0.4-2.5-1.1-3.2-2.1c-0.2-0.3-0.3-0.4-0.3-0.5 s0-0.3,0-0.6c0-0.7,0.3-1.3,0.8-1.9c0.4-0.5,0.9-0.8,1.4-1c0.6-0.2,1.3-0.2,2.1-0.1c0.5,0.1,1,0.2,1.4,0.3 c0.5,0.2,0.9,0.4,1.2,0.6c0.6,0.4,1.1,0.6,1.5,0.6c0.4,0.1,0.9,0.1,1.4,0c1-0.3,1.9-0.7,2.6-1.4c0.7-0.7,1.2-1.5,1.4-2.5 c0.2-0.5,0.2-1.1,0.2-1.7s-0.1-1.2-0.2-1.6c-0.5-1.7-1.3-3-2.3-3.9s-2.3-1.9-3.7-2.8c-1.2-0.7-2-1.2-2.5-1.6s-1-0.8-1.4-1.2 c-0.6-0.5-1-1-1.3-1.4s-0.6-0.9-0.8-1.4c-0.6-1.2-0.9-2.3-0.9-3.5s0.4-2.5,1.1-4c0.6-1.2,1.3-2.3,2.2-3.4c0.9-1.1,1.9-2.1,3-3 s2.2-1.6,3.3-2.3c1.2-0.6,2.3-1.1,3.4-1.3c0.6-0.1,1.3-0.2,2.3-0.2s1.7,0.1,2.2,0.2c1.4,0.3,2.1,0.8,2.3,1.6 c0.1,0.4-0.1,0.9-0.6,1.5s-1,1-1.6,1.3c-1.5,0.7-2.8,1.5-3.9,2.4s-2.1,2-3,3.5c-0.4,0.7-0.7,1.4-1,2.1c-0.2,0.7-0.3,1.3-0.3,1.8 c0,0.6,0.2,1.2,0.5,2.1c0.3,0.5,0.7,1,1.2,1.5c0.6,0.5,1.5,1.2,2.8,2c0.9,0.6,1.6,1,2.1,1.4c0.6,0.4,1,0.7,1.4,1.1 c0.4,0.3,0.7,0.6,1,0.9C1313.8,352.6,1314.1,352.9,1314.4,353.2z"></path> <path class="st3" d="M1345.3,325.4c-1.6-0.4-2.5-0.9-2.8-1.7c-0.3-0.8,0.2-1.5,1.5-2.1c0.7-0.3,1.4-0.5,2.2-0.7 c0.8-0.2,2-0.3,3.6-0.4c0.6,0,1.3-0.1,2.1-0.2c0.8,0,1.5-0.1,2-0.2c2.2-0.2,3.8-0.2,4.8-0.2s1.9,0.1,2.6,0.4 c1.2,0.4,1.9,0.9,2.2,1.6c0.3,0.7,0.2,1.4-0.5,2c-0.3,0.4-0.7,0.6-1.1,0.8c-0.4,0.2-1.1,0.4-2,0.6c-0.5,0.2-0.9,0.5-1.3,1.1 c-0.1,0.1-0.2,0.3-0.2,0.5c-0.1,0.2-0.1,0.4-0.2,0.6s-0.1,0.3-0.1,0.5s-0.1,0.3-0.1,0.6c0,0.2-0.1,0.6-0.1,1s0,1.1,0,1.8 c-0.1,1.6-0.1,3.3,0,5.2c0,1.9,0.1,3.6,0.2,5c0,0.4,0.1,1,0.1,1.8s0,1.6,0,2.5c0,0.7,0.1,1.3,0.1,1.8s0,1.1,0.1,1.7 c0,0.6,0.1,1.3,0.1,2.2c0,0.9,0.1,2,0.2,3.5c0.1,0.9,0.2,1.8,0.2,3c0,1.1,0.1,2.1,0.2,2.9c0,0.8,0.1,1.4,0.1,1.9 s0.1,0.8,0.1,1.1c0,0.3,0.1,0.5,0.3,0.6c0.1,0.2,0.3,0.3,0.5,0.5c0.3,0.3,0.6,0.5,0.9,0.7s0.7,0.4,1.3,0.6 c0.5,0.2,0.9,0.4,1.1,0.5c0.3,0.2,0.5,0.3,0.7,0.5c0.7,0.7,0.8,1.4,0.3,2.2c-0.5,0.7-1.3,1.3-2.7,1.6c-0.5,0.1-1.1,0.2-1.8,0.2 c-0.7,0-1.4,0-1.9-0.1c-0.3-0.1-0.6-0.1-1-0.1s-0.8,0-1.2,0c-0.5,0-1,0-1.6,0s-1.2-0.1-1.9-0.1c-0.7,0-1.3-0.1-1.8-0.1 s-0.9-0.1-1.3-0.1c-1-0.1-1.9-0.3-2.7-0.5c-0.8-0.3-1.4-0.6-1.7-1c-0.9-1-0.5-1.9,1.2-2.8c0.6-0.3,1-0.4,1.4-0.5 s0.8-0.4,1.2-0.8c0.4-0.4,0.7-0.9,0.9-1.5l0.2-0.5l-0.2-4.2c-0.1-1.2-0.1-2.4-0.2-3.6s-0.1-2.2-0.1-2.8 c-0.2-3.2-0.4-6.4-0.5-9.6s-0.2-6.4-0.2-9.6c0-1.4,0-2.5,0-3.5s-0.1-1.5-0.1-1.7c-0.1-0.6-0.3-1.1-0.7-1.7 c-0.4-0.6-0.7-1-1.1-1.1c-0.1,0-0.3-0.1-0.5-0.2C1345.8,325.5,1345.5,325.4,1345.3,325.4z"></path> <path class="st3" d="M1408.1,342.9c0,2.4-0.1,4.7-0.2,7.1c-0.1,2.3-0.3,4.7-0.5,7.1c0,0.5,0,1.3-0.1,2.3s-0.1,2-0.1,2.9 c-0.1,1.9-0.2,3.5-0.2,4.7c-0.1,1.2-0.1,2-0.2,2.2c-0.3,0.9-1.1,1.4-2.6,1.5c-1.3,0.2-2.6,0-3.9-0.5s-2.1-1.2-2.5-2.1 c-0.1-0.3-0.2-0.5-0.2-0.8s0-1,0-2.1c0-0.4,0.1-1.1,0.1-2.1s0.1-1.9,0.1-2.7c0-0.9,0-2,0.1-3.2c0-1.2,0.1-2.3,0.2-3.2 c0.4-4.6,0.5-8.4,0.5-11.5s-0.2-5.1-0.6-6.2c-0.2-0.5-0.5-0.8-0.9-0.9c-0.2,0-0.5,0-0.8,0.1s-0.7,0.3-0.9,0.5 c-0.2,0.1-0.4,0.3-0.6,0.5c-0.3,0.2-0.5,0.5-0.8,0.7c-1.1,1-2.1,2.3-3.1,3.8s-2,3.3-2.9,5.1c-0.9,1.9-1.8,3.8-2.5,5.9 c-0.8,2.1-1.5,4.1-2.2,6.1s-1.2,4-1.7,5.8s-0.8,3.5-1.1,4.9c-0.2,0.7-0.3,1.2-0.4,1.6c-0.1,0.3-0.2,0.6-0.4,0.8 c-0.4,0.4-0.9,0.7-1.7,0.9c-0.8,0.2-1.6,0.3-2.5,0.2c-1-0.2-2-0.5-2.8-1c-0.9-0.5-1.5-1-1.9-1.6c-0.3-0.5-0.5-1.5-0.6-3.1 c-0.1-0.7-0.1-1.6-0.2-2.8c-0.1-1.2-0.1-2.6-0.1-4.2s-0.1-3.2-0.1-5c0-1.7,0-3.4,0-5.1s0-3.1,0.1-4.5c0-1.4,0.1-2.5,0.2-3.3 c0-0.4,0-0.9,0.1-1.5s0.1-1.1,0.2-1.6s0.2-1,0.2-1.6s0.1-1.1,0.1-1.5c0.1-1,0.3-1.9,0.6-2.6c0.3-0.7,0.9-1.3,1.9-1.7l1-0.5h0.8 c1.2,0.1,2.3,0.4,3.3,1.1s1.6,1.6,1.9,2.8c0.1,0.3,0.1,0.7,0,1.2c0,0.6-0.1,1.5-0.3,3c-0.1,1-0.1,1.6-0.1,1.9s0.1,0.4,0.3,0.4 c0.1,0,0.2-0.1,0.3-0.3c0.1-0.2,0.4-0.7,0.8-1.4c0.8-1.4,1.7-2.7,2.7-3.9s2.1-2.3,3.2-3.2c1.2-0.9,2.5-1.7,3.9-2.2 s3-0.8,4.6-0.8c1.1,0,2.2,0.1,3.3,0.4c1.1,0.3,2.2,0.6,3.2,1.1s1.9,1.2,2.7,1.9c0.8,0.8,1.5,1.7,2,2.7c0.5,0.9,0.8,1.9,1,3 C1408,339.4,1408.1,340.9,1408.1,342.9z"></path> <path class="st3" d="M1434.3,353.2c2.3,2.8,3.3,5.6,3,8.3c-0.3,2-0.9,3.6-2.1,5c-1.1,1.3-2.6,2.4-4.4,3.3 c-1.4,0.7-3,1.2-4.8,1.5s-3.5,0.4-5.1,0.3c-1.1-0.1-2.4-0.3-3.8-0.7c-1.4-0.4-2.5-1.1-3.2-2.1c-0.2-0.3-0.3-0.4-0.3-0.5 s0-0.3,0-0.6c0-0.7,0.3-1.3,0.8-1.9c0.4-0.5,0.9-0.8,1.4-1c0.6-0.2,1.3-0.2,2.1-0.1c0.5,0.1,1,0.2,1.4,0.3 c0.5,0.2,0.9,0.4,1.2,0.6c0.6,0.4,1.1,0.6,1.5,0.6c0.4,0.1,0.9,0.1,1.4,0c1-0.3,1.9-0.7,2.6-1.4c0.7-0.7,1.2-1.5,1.4-2.5 c0.2-0.5,0.2-1.1,0.2-1.7s-0.1-1.2-0.2-1.6c-0.5-1.7-1.3-3-2.3-3.9s-2.3-1.9-3.7-2.8c-1.2-0.7-2-1.2-2.5-1.6s-1-0.8-1.4-1.2 c-0.6-0.5-1-1-1.3-1.4s-0.6-0.9-0.8-1.4c-0.6-1.2-0.9-2.3-0.9-3.5s0.4-2.5,1.1-4c0.6-1.2,1.3-2.3,2.2-3.4c0.9-1.1,1.9-2.1,3-3 s2.2-1.6,3.3-2.3c1.2-0.6,2.3-1.1,3.4-1.3c0.6-0.1,1.3-0.2,2.3-0.2s1.7,0.1,2.2,0.2c1.4,0.3,2.1,0.8,2.3,1.6 c0.1,0.4-0.1,0.9-0.6,1.5s-1,1-1.6,1.3c-1.5,0.7-2.8,1.5-3.9,2.4s-2.1,2-3,3.5c-0.4,0.7-0.7,1.4-1,2.1c-0.2,0.7-0.3,1.3-0.3,1.8 c0,0.6,0.2,1.2,0.5,2.1c0.3,0.5,0.7,1,1.2,1.5c0.6,0.5,1.5,1.2,2.8,2c0.9,0.6,1.6,1,2.1,1.4c0.6,0.4,1,0.7,1.4,1.1 c0.4,0.3,0.7,0.6,1,0.9C1433.7,352.6,1434,352.9,1434.3,353.2z"></path> <path class="st3" d="M1476,345.5c0.4,1.7,0.5,3.6,0.3,5.7s-0.5,4-1.1,6c-0.5,1.5-1.2,3.1-2,4.6c-0.8,1.6-1.8,3-2.9,4.3 s-2.4,2.4-3.9,3.3c-1.4,0.9-3,1.4-4.7,1.6c-1,0.1-1.9,0.1-2.9,0s-2.1-0.4-3.5-0.8c-0.4-0.1-0.7-0.2-1-0.3 c-0.3-0.1-0.5-0.2-0.6-0.2c-0.5,0-0.9,0.3-1.1,1c-0.1,0.3-0.1,1.2-0.1,2.7s0.1,3.7,0.2,6.4c0,1.3,0.1,2.5,0.1,3.5s0,1.6,0,1.7 c-0.1,0.3-0.2,0.5-0.5,0.8s-0.6,0.5-1,0.6s-0.8,0.2-1.3,0.3c-0.5,0.1-1,0.1-1.5,0c-1.1-0.2-2.1-0.5-3.1-1 c-0.9-0.5-1.5-1.1-1.8-1.7c-0.1-0.2-0.2-0.5-0.2-0.8s-0.1-1.2-0.1-2.5c0-0.5,0-1.3,0-2.5c0-1.1,0-2.4,0-3.8s0-2.8-0.1-4.3 c0-2.1,0-4,0-5.7s-0.1-2.6-0.1-2.8c0-0.4,0-1.4,0-2.9s0-3.2,0.1-5.1c0-1.8,0.1-3.6,0.2-5.4c0-1.7,0.1-3,0.2-3.8 c0.1-1.2,0.2-2.2,0.2-3.2s0-2.3,0.1-4.1c0-1.2,0-2.1,0-2.7s0-1.1,0-1.4s0.1-0.5,0.2-0.6s0.2-0.2,0.3-0.4c0.6-0.6,1.6-0.9,3-0.9 c0.5,0,1,0.1,1.6,0.2s1.2,0.3,1.7,0.6c0.5,0.3,1,0.6,1.5,0.9s0.8,0.8,0.9,1.3c0.3,0.6,0.6,0.8,1.1,0.8c0.1-0.1,0.3-0.1,0.6-0.3 c0.3-0.1,0.7-0.3,1.1-0.4c1.2-0.6,2.2-0.9,3-1.1s1.8-0.3,3-0.3c2,0,3.8,0.3,5.4,1s3,1.6,4.2,2.7s2.2,2.5,3,4.1 C1475,342,1475.6,343.7,1476,345.5z M1466.9,348.5c0-1.4,0-2.6-0.2-3.5s-0.5-1.9-0.9-2.9s-0.7-1.7-0.9-2.1 c-0.2-0.4-0.5-0.6-0.9-0.8c-0.4-0.2-0.7-0.2-1.1-0.2c-0.7,0-1.4,0.3-2.2,0.8c-0.9,0.8-1.8,1.7-2.6,2.7c-0.8,1.1-1.6,2.2-2.2,3.4 c-0.7,1.2-1.2,2.5-1.6,3.7c-0.4,1.3-0.6,2.4-0.7,3.5c-0.1,0.7-0.1,1.5,0,2.4c0,0.9,0.1,1.6,0.2,2.1c0,0.3,0.2,0.7,0.3,1.2 c0.2,0.5,0.4,1,0.6,1.6c0.3,0.6,0.5,1.1,0.8,1.6s0.5,0.9,0.7,1.2c0.4,0.7,0.9,1.1,1.5,1.3c0.6,0.3,1.1,0.3,1.6,0 c0.6-0.3,1.2-0.7,1.8-1.5c0.6-0.7,1.2-1.6,1.8-2.5c0.6-0.9,1.1-1.9,1.6-2.8s0.8-1.6,1-2.2c0.4-1.2,0.7-2.3,0.9-3.4 C1466.8,351.1,1466.9,349.8,1466.9,348.5z"></path> <path class="st3" d="M1488.6,337.8c0.8,0.2,1.5,0.5,2.1,0.9s1,0.8,1.2,1.3l0.2,0.5l-0.1,6.2c0,1.7,0,3.2,0,4.5s-0.1,2-0.1,2.1 s0,0.4,0,1s0,1.2,0,1.9c-0.1,0.7-0.1,1.6-0.2,2.6s-0.1,1.9-0.2,2.6c-0.1,1.8-0.2,3.4-0.3,4.7c-0.1,1.3-0.1,2.3,0,2.8 c0,0.8-0.1,1.3-0.4,1.6c-0.3,0.3-0.8,0.6-1.6,0.9c-0.4,0.1-1,0.2-1.6,0.2c-0.7,0-1.3,0-1.7-0.1c-2-0.4-3.3-1.1-3.9-2.1 c-0.1-0.3-0.2-0.5-0.2-0.6c0-0.2,0-0.6,0-1.3c0-0.9,0-1.9,0.1-3.2c0.1-1.2,0.2-2.5,0.3-3.8c0-0.6,0.1-1.2,0.1-2s0.1-1.4,0.1-2.1 c0-0.6,0-1.3,0-2.2c0-0.8,0.1-1.5,0.1-2.1s0.1-1.5,0.1-2.8s0-2.6,0.1-3.8c0-1.3,0-2.4,0-3.1s0-1.4,0-1.8s0.1-0.7,0.1-0.9 c0-0.2,0.1-0.3,0.2-0.5c0.3-0.8,1.1-1.4,2.4-1.7c0.4-0.1,0.9-0.2,1.6-0.2S1488.1,337.7,1488.6,337.8z M1492.2,322v0.9 c-0.1,0.2-0.1,0.5-0.1,1.1s-0.1,1.2-0.1,1.9c0,0.7,0,1.3-0.1,1.9s-0.1,0.9-0.1,1c-0.2,0.8-0.8,1.3-2.1,1.7 c-0.4,0.1-0.9,0.2-1.6,0.2c-0.7,0.1-1.3,0-1.7-0.1c-1.1-0.2-2-0.5-2.7-1s-1.2-1-1.4-1.6c0-0.1,0-0.4,0-0.8s0-0.9,0-1.4 c0-0.6,0-1.1,0.1-1.7c0-0.6,0.1-1.1,0.2-1.6c0-1,0.2-1.7,0.6-2.1c0.3-0.5,1-0.8,1.9-1.1c0.4-0.1,1-0.2,1.7-0.2s1.4,0.1,1.8,0.2 C1490.7,319.9,1491.9,320.8,1492.2,322z"></path> <path class="st3" d="M1532.4,330.4c0.4,0.7,0.3,1.3-0.5,1.9c-0.7,0.7-1.9,1.2-3.6,1.4c-0.3,0.1-0.5,0.1-0.8,0.1 s-0.5,0.1-0.6,0.1c-1.8,0.5-3.5,1.5-5.1,3.1c-1.5,1.6-2.9,3.4-4.2,5.5c-1.2,2.1-2.3,4.2-3.2,6.3c-0.9,2.2-1.6,4.1-2,5.6 c-0.1,0.4-0.3,1.1-0.6,2.2c-0.3,1-0.7,2.1-1.1,3.2s-0.6,2-0.8,2.6c-0.2,0.6-0.4,1.2-0.5,1.6c-0.1,0.5-0.2,0.9-0.3,1.3 c-0.1,0.4-0.2,0.8-0.3,1.4c-0.2,1-0.3,1.6-0.5,2s-0.4,0.7-0.7,0.9c-0.6,0.5-1.3,0.8-2.3,1s-1.9,0.3-2.8,0.1 c-2-0.3-3.1-1-3.5-2.1c-0.1-0.3-0.1-0.7-0.1-1.4c0-0.7,0-1.8,0.1-3.5c0-0.4,0-1,0-2.1c0-1,0-2.3,0-3.7c0-1.5,0-3.1,0-4.9 s0-3.6,0-5.5v-13.7l0.2-0.3c0.5-0.7,1.3-1.2,2.4-1.5c0.2,0,0.5-0.1,0.8-0.1c0.4,0,0.7,0,1.1,0s0.8,0,1.1,0s0.7,0.1,0.9,0.1 c0.8,0.3,1.4,0.6,1.9,1s0.8,0.8,0.9,1.3c0,0.1,0.1,0.4,0.1,1s0,1.2,0,1.8c0,0.7,0.1,1.2,0.1,1.7s0,0.7,0.1,0.8 c0.2,0.1,0.4-0.1,0.8-0.5s1.1-1.3,2.1-2.5c1.8-2.3,4-4.1,6.7-5.5s5.5-2.2,8.4-2.3c1.3-0.1,2.5,0,3.5,0.3 C1531.5,329.2,1532.1,329.7,1532.4,330.4z"></path> <path class="st3" d="M1566.6,343.5c0,0.5,0.1,1.2,0.1,2.1s0,2.3,0,4.1c0,1.4,0,2.6,0,3.6s0,1.6,0,1.7s0,0.7,0,1.8 c0,1.1,0,2.3,0,3.6c0,1.3,0,2.6,0,3.9c0,1.2,0,2.1,0,2.5c0,0.7,0.1,1.1,0,1.3c0,0.2-0.1,0.3-0.2,0.5c-0.2,0.4-0.5,0.7-1,1.1 c-0.4,0.4-0.9,0.6-1.5,0.8c-0.3,0.1-0.6,0.2-0.8,0.3c-0.2,0.1-0.5,0.1-0.8,0.2c-0.3,0-0.7,0-1.1,0.1c-0.5,0-1.1,0-1.8,0 c-1.4,0-2.8,0.1-4.3,0.2s-2.7,0.2-3.6,0.3c-0.6,0.1-1.4,0.2-2.3,0.2s-1.7-0.1-2.4-0.2c-1.3-0.2-2.6-0.4-4-0.8s-2.7-0.9-3.8-1.6 c-1.2-0.7-2.1-1.6-2.9-2.6c-0.8-1.1-1.1-2.4-1.1-3.9c0-1.6,0.5-3.2,1.5-4.6s2.2-2.8,3.6-4s3-2.3,4.6-3.1s3.1-1.5,4.4-2 c1.1-0.4,2-0.6,2.8-0.8c0.8-0.2,1.6-0.4,2.5-0.5c0.7-0.1,1.1-0.2,1.3-0.2c0.2,0,0.4-0.1,0.6-0.2c0.3-0.2,0.4-0.4,0.5-0.7 c0-0.3,0.1-1,0.1-2.1c0-1.8-0.2-3.5-0.6-5.3s-1.3-3.3-2.6-4.6c-0.9-0.9-1.7-1.4-2.7-1.5c-0.3,0-0.5-0.1-0.6-0.1 c-0.2,0-0.4,0.1-0.8,0.2c-1.8,0.5-3.4,1.6-4.6,3.2s-2.1,3.3-2.7,5.1c-0.4,1.2-0.7,2.1-0.8,2.9c-0.1,0.8-0.2,1.7-0.1,2.9 c0,0.9,0,1.4-0.1,1.6s-0.2,0.5-0.5,0.7c-0.5,0.4-1.2,0.5-2,0.5c-1.2,0-2.4-0.4-3.5-1.1c-0.6-0.4-0.9-0.8-1.1-1.2 c-0.2-0.4-0.4-0.9-0.5-1.7c-0.2-1.7-0.1-3.3,0.3-4.8c1.1-4.1,3.1-7.2,6-9.5s6.4-3.4,10.8-3.4c4.9,0,8.7,1.3,11.2,4 C1564.5,334.8,1566,338.6,1566.6,343.5z M1557.1,356.1c0-0.9,0-1.5,0-1.8c-0.1-0.3-0.2-0.6-0.4-0.8c-0.4-0.5-0.8-0.6-1.3-0.5 c-0.9,0.2-2,0.6-3.1,1.1c-1.2,0.6-2.3,1.2-3.3,2.1c-1.1,0.8-2,1.7-2.8,2.6s-1.3,1.9-1.6,2.8c-0.3,1-0.1,2,0.3,2.8 c0.5,0.9,1.2,1.5,2.2,1.7c1.2,0.3,2.6,0.3,4,0.1c0.3,0,0.7-0.1,1.2-0.2s1-0.2,1.4-0.3c0.5-0.1,0.9-0.3,1.3-0.4 c0.4-0.2,0.6-0.3,0.7-0.3c0.2-0.1,0.4-0.3,0.7-0.5c0.3-0.3,0.4-0.4,0.5-0.5c0-0.1,0.1-0.5,0.2-1.3c0-0.7,0.1-1.5,0.1-2.4 s0-1.7,0-2.5C1557.1,356.9,1557.1,356.4,1557.1,356.1z"></path> <path class="st3" d="M1586,339.7c-0.1,0.2-0.2,1.1-0.3,2.7c-0.1,1.6-0.3,4.1-0.5,7.4c-0.1,0.8-0.1,1.6-0.1,2.5s0,1.8,0,2.7 c0,0.9,0,1.6,0,2.4c0,0.7,0,1.2,0.1,1.5c0.3,2.2,0.9,4.1,1.7,5.8c0.9,1.7,2.2,3.1,4,4.3c0.3,0.2,0.5,0.4,0.7,0.7 c0.2,0.3,0.4,0.5,0.5,0.6c0.2,0.5,0.1,0.9-0.2,1.3c-0.3,0.4-0.7,0.8-1.3,1.1c-0.6,0.3-1.3,0.5-2,0.6c-0.8,0.1-1.6,0.1-2.4,0 c-0.9-0.1-1.6-0.4-2.4-0.8c-0.7-0.4-1.6-1.1-2.8-2.1c-2.3-2.1-3.9-4.4-4.6-6.9s-1.1-5.2-1.1-8.2c0-0.8,0-1.4,0-2s0-1.2,0.1-2 c0-0.7,0.1-1.6,0.2-2.6c0-1,0.1-2.3,0.2-3.8c0.1-1.6,0.2-2.8,0.3-3.6c0.1-0.8,0.1-1.4,0.1-1.7c0-0.4,0-0.6,0-0.6 s-0.1-0.1-0.1-0.2c-0.2-0.3-0.7-0.6-1.5-0.8c-0.2-0.1-0.3-0.2-0.5-0.2s-0.4-0.1-0.5-0.2c-0.2-0.2-0.3-0.2-0.5-0.2 s-0.4-0.1-0.8-0.3c-0.4-0.2-0.6-0.4-0.8-0.6c-0.5-0.5-0.4-1,0.1-1.6c0.5-0.5,1.4-0.9,2.6-1.2c0.6-0.2,1-0.3,1.3-0.4 s0.5-0.3,0.8-0.6c0.3-0.3,0.4-0.4,0.5-0.5c0-0.1,0.1-0.2,0.2-0.5c0-0.2,0-0.5,0.1-1c0-0.5,0.1-1.1,0.2-1.7 c0.1-0.8,0.2-1.5,0.2-2s0.1-1,0.2-1.4c0-0.5,0.1-0.9,0.2-1.5c0-0.5,0.1-1.2,0.2-2.1c0.1-1.2,0.2-2.1,0.3-2.6 c0.1-0.5,0.1-0.8,0.2-1c0.2-0.5,0.6-0.9,1.2-1.3s1.3-0.6,2.1-0.8c1-0.2,2.1-0.2,3.1,0.1c1.1,0.3,1.8,0.7,2.4,1.2 c0.3,0.3,0.5,0.6,0.6,0.8c0.1,0.3,0.1,0.7,0,1.4c-0.1,0.4-0.1,0.9-0.2,1.6s-0.1,1.4-0.2,2.1s-0.2,1.5-0.2,2.3 c-0.1,0.8-0.1,1.5-0.2,2s-0.1,0.9-0.2,1.3s-0.1,0.6-0.1,0.6c0,0.1,0,0.2,0,0.3c0,0.2,0,0.3-0.1,0.5c-0.2,0.7,0,1.3,0.5,1.7 c0.3,0.3,0.5,0.4,0.9,0.5c0.3,0.1,0.8,0.2,1.5,0.2c1.3,0.1,2.3,0.3,3,0.5c1.5,0.6,2.2,1.4,2,2.4s-1.1,1.7-2.8,2.2 c-0.4,0.1-0.9,0.2-1.6,0.2s-1.3,0-1.9-0.1C1587.1,338.3,1586.4,338.7,1586,339.7z"></path> <path class="st3" d="M1604.7,337.8c0.8,0.2,1.5,0.5,2.1,0.9s1,0.8,1.2,1.3l0.2,0.5l-0.1,6.2c0,1.7,0,3.2,0,4.5s-0.1,2-0.1,2.1 s0,0.4,0,1s0,1.2,0,1.9c-0.1,0.7-0.1,1.6-0.2,2.6s-0.1,1.9-0.2,2.6c-0.1,1.8-0.2,3.4-0.3,4.7c-0.1,1.3-0.1,2.3,0,2.8 c0,0.8-0.1,1.3-0.4,1.6c-0.3,0.3-0.8,0.6-1.6,0.9c-0.4,0.1-1,0.2-1.6,0.2c-0.7,0-1.3,0-1.7-0.1c-2-0.4-3.3-1.1-3.9-2.1 c-0.1-0.3-0.2-0.5-0.2-0.6c0-0.2,0-0.6,0-1.3c0-0.9,0-1.9,0.1-3.2c0.1-1.2,0.2-2.5,0.3-3.8c0-0.6,0.1-1.2,0.1-2s0.1-1.4,0.1-2.1 c0-0.6,0-1.3,0-2.2c0-0.8,0.1-1.5,0.1-2.1s0.1-1.5,0.1-2.8s0-2.6,0.1-3.8c0-1.3,0-2.4,0-3.1s0-1.4,0-1.8s0.1-0.7,0.1-0.9 c0-0.2,0.1-0.3,0.2-0.5c0.3-0.8,1.1-1.4,2.4-1.7c0.4-0.1,0.9-0.2,1.6-0.2S1604.2,337.7,1604.7,337.8z M1608.3,322v0.9 c-0.1,0.2-0.1,0.5-0.1,1.1s-0.1,1.2-0.1,1.9c0,0.7,0,1.3-0.1,1.9s-0.1,0.9-0.1,1c-0.2,0.8-0.8,1.3-2.1,1.7 c-0.4,0.1-0.9,0.2-1.6,0.2c-0.7,0.1-1.3,0-1.7-0.1c-1.1-0.2-2-0.5-2.7-1s-1.2-1-1.4-1.6c0-0.1,0-0.4,0-0.8s0-0.9,0-1.4 c0-0.6,0-1.1,0.1-1.7c0-0.6,0.1-1.1,0.2-1.6c0-1,0.2-1.7,0.6-2.1c0.3-0.5,1-0.8,1.9-1.1c0.4-0.1,1-0.2,1.7-0.2s1.4,0.1,1.8,0.2 C1606.8,319.9,1608,320.8,1608.3,322z"></path> <path class="st3" d="M1645.9,343c0,0.3,0.1,0.8,0.2,1.6c0,0.7,0.1,1.5,0.1,2.4c0,0.8,0,1.6,0,2.4s0,1.4,0,1.8 c-0.1,2.5-0.5,4.9-1.2,7.3s-1.7,4.5-3.1,6.4c-1.3,1.9-3,3.5-5,4.7s-4.3,2-7,2.2c-0.6,0-1.1,0.1-1.4,0.1s-0.8,0-1.4-0.1 c-2.9-0.3-5.4-1.3-7.4-3c-2.1-1.8-3.5-4-4.4-6.8c-0.5-1.5-0.9-3.1-1.1-4.8c-0.2-1.7-0.3-3.4-0.2-4.9c0.2-2.6,0.6-5.3,1.3-8.1 c0.7-2.8,1.8-5.3,3.2-7.6c1.4-2.3,3.2-4.2,5.4-5.7c2.2-1.5,4.8-2.2,7.8-2.2c2.3,0,4.3,0.4,5.9,1.1c1.7,0.8,3.1,1.8,4.2,3.1 c1.1,1.3,2,2.8,2.7,4.6C1645.1,339.1,1645.6,341,1645.9,343z M1636,355.9c0.3-1.1,0.4-2.1,0.5-3.2s0.1-2.2,0.1-3.3 c0-1.1-0.1-2.3-0.3-3.6c-0.2-1.3-0.4-2.7-0.7-4.3c-0.1-0.5-0.2-1.2-0.4-2c-0.2-0.8-0.5-1.6-0.9-2.4s-0.8-1.4-1.3-2 s-1.1-0.8-1.7-0.8c-0.5,0-0.9,0.2-1.3,0.5s-0.8,0.7-1.2,1.2s-0.7,0.9-1,1.4s-0.5,0.9-0.7,1.3c-2.1,4.2-3.3,8.6-3.6,13.4 c-0.2,1.8-0.1,3.7,0.3,5.7c0.3,2,0.8,3.6,1.6,4.9c0.4,0.7,0.8,1.4,1.3,1.9c0.5,0.6,0.9,1,1.3,1.3c0.2,0.1,0.4,0.2,0.7,0.2 c0.3,0,0.6,0,0.8-0.1c0.3-0.1,0.6-0.3,1.1-0.6c0.5-0.3,0.9-0.7,1.3-1.1c0.9-1,1.7-2.2,2.5-3.7S1635.6,357.5,1636,355.9z"></path> <path class="st3" d="M1691.1,342.9c0,2.4-0.1,4.7-0.2,7.1c-0.1,2.3-0.3,4.7-0.5,7.1c0,0.5,0,1.3-0.1,2.3s-0.1,2-0.1,2.9 c-0.1,1.9-0.2,3.5-0.2,4.7c-0.1,1.2-0.1,2-0.2,2.2c-0.3,0.9-1.1,1.4-2.6,1.5c-1.3,0.2-2.6,0-3.9-0.5s-2.1-1.2-2.5-2.1 c-0.1-0.3-0.2-0.5-0.2-0.8s0-1,0-2.1c0-0.4,0.1-1.1,0.1-2.1s0.1-1.9,0.1-2.7c0-0.9,0-2,0.1-3.2c0-1.2,0.1-2.3,0.2-3.2 c0.4-4.6,0.5-8.4,0.5-11.5s-0.2-5.1-0.6-6.2c-0.2-0.5-0.5-0.8-0.9-0.9c-0.2,0-0.5,0-0.8,0.1s-0.7,0.3-0.9,0.5 c-0.2,0.1-0.4,0.3-0.6,0.5c-0.3,0.2-0.5,0.5-0.8,0.7c-1.1,1-2.1,2.3-3.1,3.8s-2,3.3-2.9,5.1c-0.9,1.9-1.8,3.8-2.5,5.9 c-0.8,2.1-1.5,4.1-2.2,6.1s-1.2,4-1.7,5.8s-0.8,3.5-1.1,4.9c-0.2,0.7-0.3,1.2-0.4,1.6c-0.1,0.3-0.2,0.6-0.4,0.8 c-0.4,0.4-0.9,0.7-1.7,0.9c-0.8,0.2-1.6,0.3-2.5,0.2c-1-0.2-2-0.5-2.8-1c-0.9-0.5-1.5-1-1.9-1.6c-0.3-0.5-0.5-1.5-0.6-3.1 c-0.1-0.7-0.1-1.6-0.2-2.8c-0.1-1.2-0.1-2.6-0.1-4.2s-0.1-3.2-0.1-5c0-1.7,0-3.4,0-5.1s0-3.1,0.1-4.5c0-1.4,0.1-2.5,0.2-3.3 c0-0.4,0-0.9,0.1-1.5s0.1-1.1,0.2-1.6s0.2-1,0.2-1.6s0.1-1.1,0.1-1.5c0.1-1,0.3-1.9,0.6-2.6c0.3-0.7,0.9-1.3,1.9-1.7l1-0.5h0.8 c1.2,0.1,2.3,0.4,3.3,1.1s1.6,1.6,1.9,2.8c0.1,0.3,0.1,0.7,0,1.2c0,0.6-0.1,1.5-0.3,3c-0.1,1-0.1,1.6-0.1,1.9s0.1,0.4,0.3,0.4 c0.1,0,0.2-0.1,0.3-0.3c0.1-0.2,0.4-0.7,0.8-1.4c0.8-1.4,1.7-2.7,2.7-3.9s2.1-2.3,3.2-3.2c1.2-0.9,2.5-1.7,3.9-2.2 s3-0.8,4.6-0.8c1.1,0,2.2,0.1,3.3,0.4c1.1,0.3,2.2,0.6,3.2,1.1s1.9,1.2,2.7,1.9c0.8,0.8,1.5,1.7,2,2.7c0.5,0.9,0.8,1.9,1,3 C1690.9,339.4,1691,340.9,1691.1,342.9z"></path> </g> <g> <g> <g> <g> <g> <path class="st4" d="M1714.2,408.5c0.9,0.1,0.6-0.3,0.8-0.4C1713.4,408,1714.2,408.6,1714.2,408.5z"></path> <polygon class="st4" points="1698.8,408.1 1699.1,408 1696.8,408.2 "></polygon> <path class="st4" d="M1684.6,406.9c1.3,0.8,5.2,0.3,7.7,0.8l0.4,0.2l1.2-0.5C1690.8,407.3,1686.7,407.3,1684.6,406.9z"></path> <path class="st4" d="M1677.1,404.8c0.4,0.3-1.7,0.1,1.8,0.2c-0.2,0-0.2-0.1-0.3-0.1C1678.2,404.9,1677.8,404.8,1677.1,404.8 z"></path> <path class="st4" d="M1678.5,404.9C1680.1,405,1677.6,404.6,1678.5,404.9L1678.5,404.9z"></path> <path class="st4" d="M1671.6,404.5l2-0.1c-0.4-0.2-2.2-0.4-1.5-0.4C1670.1,403.9,1670.5,404.1,1671.6,404.5z"></path> <path class="st4" d="M1669.7,404.9h1C1670.5,404.8,1670.3,404.7,1669.7,404.9z"></path> <path class="st4" d="M1672.9,404.8l-2.2,0.1c0.3,0.1,0.3,0.4,1,0C1671.5,405,1672,404.9,1672.9,404.8z"></path> <path class="st4" d="M1674.1,405c1.1,0.2,2.5,0.4,0.5,0.5C1678.4,405.8,1677.9,405.2,1674.1,405z"></path> <path class="st4" d="M1683.8,407.6l1.5,0.3l1.3-0.1C1685.9,407.9,1683.7,407.4,1683.8,407.6z"></path> <path class="st4" d="M1659.3,403.2c-0.1,0.1,0.6,0.5,0.8,0.7l1.5-0.1C1660.8,403.6,1659.4,403.4,1659.3,403.2z"></path> <path class="st4" d="M1660,403.8l-2.2,0.1C1659.8,404.1,1660.2,404,1660,403.8z"></path> <polygon class="st4" points="1669.3,405.6 1672.9,405.4 1668.6,405.6 "></polygon> <polygon class="st4" points="1650.9,402.5 1652.2,402.3 1649.9,402.6 "></polygon> <path class="st4" d="M1645.4,402.1c0.9-0.2-1.2-0.6-0.2-0.7c-1.5-0.1-2.8,0.1-4,0.2C1642.4,401.6,1643.7,401.8,1645.4,402.1 z"></path> <path class="st4" d="M1639.2,401.9c0.6,0,1.3-0.1,2-0.2C1640.5,401.7,1639.8,401.7,1639.2,401.9z"></path> <path class="st4" d="M1654.1,403.6c-0.2-0.1-0.5-0.4-1.7-0.6l0.8,0.5C1653.5,403.5,1653.8,403.5,1654.1,403.6z"></path> <path class="st4" d="M1653.3,403.5L1653.3,403.5c-1-0.1-1.6-0.2-1.9-0.2C1651.6,403.3,1652.2,403.4,1653.3,403.5z"></path> <path class="st4" d="M1663.5,404.8c-1.3,0.1-4,0.2-1.4,0.8C1663.1,405.3,1661.6,405,1663.5,404.8z"></path> <path class="st4" d="M1655.4,404.2l2.3,0.3c0-0.1-0.4-0.3,0.2-0.4L1655.4,404.2z"></path> <polygon class="st4" points="1654.2,404.2 1655.4,404.2 1654.5,404.1 "></polygon> <path class="st4" d="M1643.1,402.6c-1,0.1-2.1,0-3.4,0c1.3,0.2,2.7,0.3,4,0.4C1644,402.8,1644.5,402.7,1643.1,402.6z"></path> <path class="st4" d="M1627.5,401.7c0.1,0,0.1,0.1,0.2,0.1c0,0,0,0,0.1-0.1H1627.5z"></path> <path class="st4" d="M1644,403.1c1,0.2,1.6,0.1,2.2,0c-0.8,0-1.5,0-2.4-0.1C1643.7,403,1643.7,403.1,1644,403.1z"></path> <path class="st4" d="M1635.7,401.8c0.5,0.1,1.1,0.2,1.7,0.4C1637,402,1635.9,401.7,1635.7,401.8z"></path> <path class="st4" d="M1647.5,402.9c0.1,0,0.1,0,0.2,0C1647.3,402.8,1647.4,402.8,1647.5,402.9z"></path> <path class="st4" d="M1647.5,402.9c-0.5,0-0.9,0.1-1.3,0.2c0.6,0,1.2,0,1.7,0C1647.7,403,1647.6,403,1647.5,402.9z"></path> <path class="st4" d="M1623.6,404.1c0.2-0.4,2.9-0.6,5.1,0c2.3-0.1,0.9-1.5-1-2.4c-0.1,0.2-0.1,0.3-2.4,0.4 c0.8,0.3,5.1,0.9,3.1,1.1c-3.1,0-2.5-0.3-4-0.6c1.2,0.6-3.9,0.4-3.3,1.2l2.7-0.1C1623.9,403.9,1622.9,404,1623.6,404.1z"></path> <path class="st4" d="M1632.1,402.1h0.9c-1.1-0.1-1.8-0.4-3.2-0.8c-1.6,0.1-1.9,0.2-2,0.3l4.7,0.4L1632.1,402.1z"></path> <path class="st4" d="M1637.3,402.4c-0.8,0.4-3.1,0.4-1.7,1c2.8,0.2,2-0.2,3.6-0.3C1634.8,402.8,1640.5,402.9,1637.3,402.4 c0.9,0,1.7,0.1,2.5,0.1c-0.8-0.1-1.6-0.2-2.3-0.4h0.1l0,0l0,0c0.2,0.1,0.3,0.1,0,0.1h-0.1 C1637.5,402.3,1637.4,402.4,1637.3,402.4c-1.3-0.2-0.2-0.1,0.2-0.1c0,0,0.1,0,0.1-0.1l0,0l-4.5-0.1 C1634,402.2,1635.2,402.3,1637.3,402.4z"></path> <path class="st4" d="M1659.6,406.3C1659.5,406.3,1659.5,406.2,1659.6,406.3C1659.2,406.2,1659.1,406.2,1659.6,406.3z"></path> <path class="st4" d="M1657.8,405.9c0.3,0,0.6-0.2,1.7-0.1c0.9,0.2,0,0.2,0,0.4c0.6-0.1,2.3-0.1,0.3-0.5h-0.3 c-1.8-0.3-4.1-1-3.8-1C1656.2,405.1,1656.6,405.4,1657.8,405.9z"></path> <path class="st4" d="M1647.4,404.2l-3.8-0.1l1.9,0.5l-0.1-0.2C1647.6,404.7,1647.1,404.4,1647.4,404.2z"></path> <polygon class="st4" points="1627.1,401.4 1627.7,401 1625.4,401.5 "></polygon> <polygon class="st4" points="1622.3,401.1 1622.5,400.7 1621.2,400.9 "></polygon> <path class="st4" d="M1347.7,397.6l-1.1,0.1C1347.2,397.7,1347.5,397.6,1347.7,397.6z"></path> <path class="st4" d="M1355.7,397.4l0.2-0.2C1355.5,397.4,1355.4,397.4,1355.7,397.4z"></path> <path class="st4" d="M1502.9,394.5c-1.6-0.4-3.4-1.1-3.2-0.6l0.5,0.5C1501.3,394.3,1502.1,394.4,1502.9,394.5z"></path> <path class="st4" d="M1420.9,395c0.2,0,0.3,0.1,0.5,0.1c0.4-0.1,0.8-0.3,1.1-0.4C1422,394.8,1421.5,394.9,1420.9,395z"></path> <path class="st4" d="M1419.8,396.8l-2.1-0.3C1418.2,396.6,1418.8,396.7,1419.8,396.8z"></path> <path class="st4" d="M1304.3,399.4l-1.3,0.5C1305.1,399.8,1304.2,399.6,1304.3,399.4z"></path> <path class="st4" d="M1572.5,398.1c-1.4-0.3-2.5-0.4-3.4-0.5C1570.7,397.9,1572,398.4,1572.5,398.1z"></path> <path class="st4" d="M1350.8,392.9c-0.7,0.1-1,0.2-0.9,0.3C1350.5,393.1,1350.9,393,1350.8,392.9z"></path> <path class="st4" d="M1565.1,397.3c0.2,0,0.5,0.1,0.7,0.1c1,0,2,0,3.3,0.1C1567.8,397.3,1566.4,397.1,1565.1,397.3z"></path> <path class="st4" d="M1101.3,414.6c0.4-0.1,1.2-0.2,1.9-0.3C1102.8,414.3,1102.2,414.4,1101.3,414.6z"></path> <path class="st4" d="M1602.7,399.6C1603.8,399.6,1602.9,399.5,1602.7,399.6L1602.7,399.6z"></path> <path class="st4" d="M1607.6,401.6c-0.2,0-0.4,0.1-0.4,0.2C1607.3,401.7,1607.4,401.7,1607.6,401.6z"></path> <path class="st4" d="M1554.6,399.5C1554.6,399.4,1554.6,399.4,1554.6,399.5C1554.9,399.5,1554.8,399.5,1554.6,399.5z"></path> <path class="st4" d="M1604.3,399.9c-0.4-0.1-0.8-0.2-1.3-0.2C1603.2,399.7,1603.6,399.8,1604.3,399.9z"></path> <path class="st4" d="M1604.1,399.7c0.4,0,0.6,0.1,0.9,0.1C1605.1,399.7,1605,399.7,1604.1,399.7z"></path> <path class="st4" d="M1601.3,399.5c0.6,0,1.1,0.1,1.7,0.2c-0.2,0-0.3-0.1-0.2-0.1C1602.4,399.6,1602,399.5,1601.3,399.5z"></path> <path class="st4" d="M1231.2,402.3c-0.1,0-0.1,0-0.2,0C1230,402.5,1230.4,402.4,1231.2,402.3z"></path> <path class="st4" d="M1472.1,398.2c1.6-0.5,2.5-0.4,3.7-0.3l-1.2-1.3L1472.1,398.2z"></path> <path class="st4" d="M1328.7,398.2l2.6,0.3c-3.1,0.7-5.4,0.5-2.9,1c0.3-1.4,10.1-0.4,10.4-1.7l1.7,0.2 c-0.5,0-0.6,0.1-1.1,0.1c3.3,0.6,2.5-1,6.8-0.9c1.5,0.1,2.5,0.2,1.5,0.4l3.3-0.4c1,0,0.7,0.2-0.2,0.2l5.1-0.2l0,0 c0.7-0.2,2.4-0.6,3.2-0.8c1.3,0.2-0.6,0.2-0.3,0.3l2.8-0.4c1.2,0.3-1.2,0.7-3.1,0.7c2.7,1.3,2.3-0.4,8,0.4l-2.7,0.2 c1.7,0.8,3.8,0.5,6.8,0.9c-0.7-0.2-6-1.2-3-1.5c0.9,0.1,2,0.1,3.6-0.1c0,0.5,1.6,0.4,3.6,0.3l-0.1,0.6 c2.2-0.2,2-0.5,3.3-0.8c2.4,0,2.9,0.5,3.5,1c3.9,0.1-2.7-0.8,1.9-0.9c3.2,0.2,5.5,0,9.4-0.5c2.3,0.2-0.4,0.4,0.4,0.6l2-0.5 c0.5,0,0.3,0.2,0.3,0.2c1.7-0.2,0.1-0.6,2.8-0.8c0.7-0.7,5.5,1,8.7,0.3c0.8,0.2-0.4,0.4-0.1,0.6c4.5-0.5,3.9-0.3,7.6-1 l3.2,0.5c-2.3-0.5,0.7-1,3.3-1.5c-0.8-0.2-1.5-0.5-2-0.6l4.2-0.3c0.5,0.1,0.1,0.3-0.6,0.6c0.3-0.1,0.6-0.1,0.8-0.1 c1.5,0.3,0.7,0.6-0.4,1c-0.5-0.1-1-0.3-1.5-0.4c-1,0.4-2,0.8-1.8,1.2c0.3-0.1,0.8-0.1,1.4-0.2c-0.3,0.1-0.4,0.2-0.3,0.3 c0.1,0.1,0.6-0.1,1.3-0.2l0.9,0.7l0.2-0.3l5.4,0.5c3.9-0.7,7.3-1.7,13.4-1.9c-1.5,0.5-0.3,0.8-0.4,1.5c-1.7-0.7-4.8,0.2-8,0 c1.7,0.1,1.3,0.4,0.9,0.5l5.7-0.5c-0.1,0.5,1.2,0.4,2.7,0.7c-1.1-1,4.3-0.6,6.6-0.8c0.1,0.3-0.4,0.7-3.2,0.5 c3.1,0.8,4.1-1.1,7.1-0.4c-0.7,0-1.1-0.1-1.3,0.1c1.6-0.3,5.6,0.1,4.6,0.3h-0.7c4.6,0.2,13.9,0.4,14.6-0.5 c0,0.1-0.6,1-0.9,1.2l8.3-2.7c-0.7,0.7,2,2.5-1.8,2.8c1.1,0.1,2.4,0.3,4.7,0.1c-0.7-0.1-1.8-1.1-0.8-1.2 c2.8,0.9,1.9,0.5,5.3,1.3c-1.1-0.2,0.2-1.3,1.9-1.2c-0.3,0.2,0.1,1.1-0.5,1.2l4.4-1c-1.1,0.2-0.2,0.9,0.7,1.3 c-0.4-0.2,3.8,0.2,5,0.1l-1.8-0.3c4.9,0.4,4.9-1.4,9.9-1.1c-0.6,0.2-1.5,1.4,1,1.6c1.2-0.5,5.2-2.6,9.6-2.9l0.8,0.4l3.4-0.2 c-2.1,0.8-8,2.4-11.2,3c1.8,0.3,0.5,0.4,3.3,0.5c1,0.3-1.5,0.4-2.3,0.4l6.4,0.4c-0.3-0.7,5-0.5,4.7-1 c-2.3,0.1-4.7,0.3-7,0.4c-0.3-0.7,4.1-1.8,8.7-1.4c1.2,0.3-0.9,1.2-0.8,1.4c0.6-0.2,4.4-0.2,4.8,0l-2,0.3 c2.5,0.4,4.2-0.7,7.2,0.1c1.1,0.1,3.1,1,3.3,0.6c-1.7-0.9-1.9-3.2-0.7-3.8c0.4,0.1,5.5,1,6.7,1.4c1.7,0.7-2.7,1.3-1.2,1.9 c0.1-0.2,1-0.4,1.4-0.4c1.1,0.2-0.5,0.5,1.9,0.6c0.4-0.7,4.9,0.3,1.2-0.5c2.4-0.1,2.5,0.3,5.3,0.4c-0.9-0.5,2.6-1.4,4.9-1.4 c-0.1,0.2,0.4,0.4,0.6,0.5c4.8,0.3,7.4,0.8,11.9,1.1c0.4,0.2,2.6,0.5,1.6,0.8c0.7-0.1,1.3-0.3,2.7-0.2 c2.7,0.8-3.1-0.1-1.1,0.7c0.2-0.4,3.6-0.3,5.6-0.5c-0.6-0.6-4.6-0.4-6.6-0.3c0-0.8,3.5-1.5,8.3-1.6c3.8,0,1.6,0.6,2.2,0.6 c7,0.6,6.1-1.1,11.9-0.1c2.3,0.7,0,1.1,0.5,1.5c-3.1,0-4.7-0.6-6.7-0.7l2.5,0.4c-1,0.1-3,0.1-4.1-0.1 c1.9,0.6,11.9,0.8,17.3,1.6c1-0.1,2.6-0.2,1.9-0.5h-1.7c-1.5-0.5,3.3-0.4,1.1-0.7c2.3-0.1,4.9-0.4,8.2,0l0.6,0.7 c-0.1-0.2-2.1-0.5-3-0.4c1.4-0.2,4.9,1.2,6.4,0.5l-2.2-0.6c2.3-0.1,5.2-0.6,8.1-0.2c-1.3-0.7-0.7,0-2.7-0.8 c1.7,1-7.3-0.5-4.6,0.6c-2-1-3.6-0.6-6.3-1.5c0.1,0.2,0.9,0.5-1.5,0.2c-0.1,0.1-0.4,0.1-0.5,0.1s-0.1,0-0.2,0h0.1 c-0.1,0-0.1,0,0,0c0.6,0.1,1,0.3,1.2,0.4c-1.2,0.4-5.1,0.1-6.4,0.2c-1.4-0.2,0.6-0.2-0.2-0.5l-2,0.2c-0.2-0.5-3.8-1-0.4-1 l-3-0.2c-1.8-0.4-4.2-0.6-5.8-0.5c-1.4-0.2-3.6,0.3-2.4,0h-4.8v-0.1c-4.7-0.3-9.7,0.2-15-1c-1.6,0-3.2,0.1-5.9-0.2l-0.5-0.4 c-2,0-6.1-0.7-7-0.3c-2.1-1.2-9.9-0.7-13.4-1.1l-0.2,0.5c-2.5-0.2-4.8-0.1-7.9-0.1l0.2,0.5c-2.6,0.2-6.8-0.7-10.9-0.8 c0.3-0.2,1.3-0.1,2.1,0.1c-4.9-1.3-10.5,0.3-15-0.6c-1.1,0.1-1.9,0-2.7-0.1c0.1,0,0.2,0,0.3,0c-0.1,0-0.3,0-0.5,0 c-0.5-0.1-1-0.2-1.6-0.3c0.5,0.1,0.9,0.2,1.3,0.3c-0.9,0-2.2,0-3.5,0l-0.5-0.5c-0.1,0-0.2,0-0.3,0c-1.3-0.2-1,0.2-0.4,0.6 c-0.7,0.1-1.3,0.1-1.7,0.2c-1-0.8-3.4,0.1-4.8-0.7c-0.9,0.4-6.5,0.1-7.2,0.9c0-0.1-0.4-0.2,0.3-0.2 c-1.4-0.2-2.9-0.3-4.2-0.1l-0.6-0.6l-3.2,0.7c-1.9-0.4-2.7-0.7-0.8-1.1c-4.6,0.6-3.7,0.2-7.6,0.8l0.2-0.4 c-1.4,0-3.6,0.5-4.5,0.1c-3.1-0.8-15.4-0.5-23.4-1.4c1.5,1.2-3.7-0.6-4,0.3c-0.5-0.3-1.6-0.4-0.3-0.7 c-4.1,0.2-6.1-0.5-8.9,0.2c-0.5-0.3,0.9-0.4,0.5-0.6c-0.3,0.1-1.3,0.2-1.7,0.1c-0.4-0.2,0.6-0.2,1.2-0.3 c-4.2,0-4.6,0.8-4.9,1.6c-2.1-0.4-3.2-0.4-4.7,0.2c-0.7-0.3-2-0.6,0.6-0.6c-1.5-0.1-8.9-0.5-9,0.2c-0.5-0.2-2-0.1-2.4,0 c-3.3-0.1-3.6-0.1-6.8-0.1l0.9,0.1c-1.3,0.7-2.7,0.2-5.3,0.3l0.1-0.1c-5.9-0.5-2.6,0.3-8.4-0.3l0.3,0.5 c-0.5,1-5.2-0.6-8.6-0.2l1.2,0.3c-1.9,0.4-5.2-1.4-7.1-1.5c-0.4-0.1,0.6-0.1,1.2-0.2c-4.9-0.6-0.6,0.6-4.3,0.8 c-0.7-0.3,0.9-0.9-1.6-0.9c-1.2-0.3-7.1,1.1-10.4,0.5c0.7,0.2,1.5,0.5-0.2,0.7c-2.6,0.2-7-0.8-9.3,0.1 c-0.3-0.1-0.5-0.1-0.5-0.2c-2,0.3-6.4,0.5-7.6,1c-1.9-1.6-12.3,1.1-12.3-0.4l-6.1,0.2l0.2-0.2c-3.9,0-5.2,0.5-6.6,0.9 c-0.9-0.1-0.3-0.2-0.2-0.3c-5.7-0.1-6.2,0-11,1l-0.5-0.5c-1.3,0.3-8.2-0.4-13.8,0.4c0.1-0.1,0.2-0.2,0.6-0.2 c-3.1,0.4-6.9,0.2-10.1,0.2c-3.3,0-6,0.1-7.1,1.1l-4.1,0.7c5.3-0.2-0.7,0.8,1.5,1c-2.1,0.2-5.5-0.2-2.9-0.5l0.4,0.1 c0.9-1-6.7,0.1-6.5-0.6c-10.5,0.7-20.8,0.7-30.6,1.6l1.2,0.6l-3.4,0.2c-0.9-0.1-1.3-0.5,1.2-0.6c-1.3-0.3-4.1,0.7-4.1,0.9 c-4.8,0.1,1.8-1,0.3-0.9l-2,0.2h0.5c-1.6,0.4-1.7,0.8-4.7,1c-1.9,0-1-0.4-1.7-0.3c0-0.1-0.2-0.1-1.1,0.1l-4.3,0.3l1.8,0.4 c-1.9,0.4-4.1,0.3-2,0.8c-1.5-0.4-5.5-0.1-9.4,0.2c-3.9,0.4-7.6,0.9-8.5,0.8c-2.6,0.7-5.3,1-8.6,1.3c0.8,0,1.4,0.6-1.4,0.8 c0.9-1.4-5.2,0-7.6-0.7c2.1,0.4-8,1-4.7,1.6c-2.4,0.1-0.2-0.5-2-0.6c-5.6,1-12.4,1.1-19.3,2.2c-0.1,0.2,1.1,0.3-0.3,0.8 l-3.8-0.4c-1.4,0.3-1.1,1.2-3.7,0.9c0.4,0.1,0.9,0.3,0,0.4c-6.8,0.5-13.7,1.5-20.6,2.6c-6.9,1.2-13.8,2.3-20.8,2.6 c1.9,0,0.7,0.3-0.7,0.5c0.9-0.1,0,0.4,0.3,0.6l-5.8,0.3c-0.9,0.8-6.1,1-6.6,1.7l1.8-0.4c-2.3,1.1,3.7,1.1,3.5,2.1 c2.6-1.3,7.3,0.1,11.5-1.8c1,0-0.8,0.4-0.2,0.6c1.1-0.6,2.4-0.9,4.9-1.1l-0.3,0.1c3.5-0.6,6-0.9,8.7-1.2 c1.3-0.1,2.7-0.3,4.2-0.5c0.8-0.1,1.6-0.2,2.4-0.3c0.9-0.1,1.8-0.2,2.8-0.3l-0.7-0.4c1.7-0.2,2.1-0.1,2.9-0.1 c1.9-1-4.8,0.6-3.1-0.4c2.4,0.7,12.1-1.6,13.7-0.7c2.6-0.3-0.8-0.4,1.8-0.8l0.7,0.2l0.6-0.5c1.7-0.2,2.6,0.1,2.7,0.3 c-0.4,0-1.2,0.2-1.6,0.3c2.3,0.1,6.3-0.9,7.1-0.9l-2.5,0.2c3.6-0.6,7.6-1.1,11.5-1.6c1-0.1,2-0.3,2.9-0.4 c1-0.1,1.9-0.2,2.9-0.4c1.9-0.3,3.7-0.5,5.5-0.9l-0.6-0.2c5.3-1,4.3-0.2,10.1-1l-0.2,0.1c1.1-0.3,2.7-0.6,4.3-0.8 c-1.4,0.4,2.8,0.2,0.9,0.7c5.7-1.1,2.8-0.7,6.5-1.9l0.9,0.3c1.3-0.5,1.4-0.7,4.3-1.1c-2.4,0.6,1.9,0.4-0.7,1.1 c6.2,0.1,9-1.7,11.9-0.7c2.7-1.3-5.4-0.1-3.8-0.5c-1.4-0.2,2.3-1,4.2-1c2-0.1,3.4,1,8.4,0.6c-0.5,0-0.5,0.1-1,0.2 c1.9,0.1,3.6-0.7,5.9-0.4c1.2-0.7,2.9-0.2,3.2-1l-4.5,0.6c2.5-0.4,4.9-1.5,9.1-1.5c-0.3,0.2-1.6,0.5-2.4,0.7 c1.3,0.1,2.4-0.4,3.7-0.2c-0.3,0.8-5.5,0.6-8.2,1.5c1.3,0.2,5.1-1,3.8,0c1.9-1.3,4.9-0.3,8.1-1.4l-0.2,0.5 c0.5-0.1,1.6-0.4,2.6-0.5l-1.7,0.8c2.7-0.8,5.2,0,7.8-0.4c-5.4,0.4-1.3-0.5-3.6-0.7c6.6-1.1,3.9,1,11.4,0.3 c-1,0.1-3.8,0-2.3-0.4c1.4,0,3.3,0.1,4.2,0.3c5-0.4-0.8-0.4,1.3-0.9c1.7,0.5,2.4-0.4,4.6-0.7v0.5c5.7,0,1.4-1.1,6.6-1 l-2.1,0.8l2.6-0.3l-0.5,0.6c2.9-0.6,3.8-0.5,6.6-0.6c-0.7-0.3,0.3-0.9,2.8-1.1c1.7,0.2-0.9,0.5,2.6,0.2 c-0.8,0.4-1.6,0.8-3.2,0.4c-0.1,0.2-0.8,0.4-0.9,0.5c1.9,0.2,4.6-0.2,5.9-0.3c-0.5,0-1.1,0-1.4,0c1.7-0.3,3.4-0.6,5.1-0.9 c0.8,0.1,0.2,0.3-0.4,0.5c1-0.1,1.8-0.3,3.3-0.5c-0.4,0.4-0.3,0.8-2.4,1.1l4.9-0.6c0.3,0.2,2.5,0.4,1.9,0.5 c2.7,0.1,6.6-1,10.3-0.9c0.2-0.1,0.6-0.2,1.3-0.3c3.4-0.1,6.4,0.3,10.4-0.4l2.3,0.6c3.1-0.3-3.1-0.8,2.1-1.2 c3.7-0.4,1.4,0.5,2.7,0.7c1.8-0.4,5-1.2,8.5-0.7C1330.6,398.2,1329.8,398.1,1328.7,398.2z M1367.5,397.1 c-0.8,0.1-2.2,0.4-2.8,0.1C1365.6,396.7,1366.3,396.9,1367.5,397.1z M1426.6,396c-0.6,0.2-1.4,0.1-2.4-0.1 C1425,395.8,1425.8,395.9,1426.6,396z M1591.4,399.2L1591.4,399.2C1589.7,399,1590.3,399.1,1591.4,399.2z M1594.9,399.7 c0.4,0,0.3-0.1,0.2-0.2c-0.3,0.1-1,0.1-1.9,0C1593.4,399.6,1593.8,399.7,1594.9,399.7z M1220,400l0.7,0.1 C1219.1,400.3,1219.5,400.1,1220,400z"></path> <path class="st4" d="M1419.9,396.6c-0.2-0.1-0.3-0.2-0.3-0.3C1419.3,396.4,1419.3,396.5,1419.9,396.6z"></path> <path class="st4" d="M1304.6,399.3L1304.6,399.3c-0.2,0-0.2,0.1-0.2,0.1L1304.6,399.3z"></path> <path class="st4" d="M1540.6,400.7c-0.7-0.1-1.1-0.2-1.4-0.3C1539.2,400.5,1539.6,400.6,1540.6,400.7z"></path> <path class="st4" d="M1613.4,400.1h-2.2c1.1,0.1,1.5,0.2,2,0.3C1613.1,400.3,1612.7,400.1,1613.4,400.1z"></path> <path class="st4" d="M1632.6,404.4c0.3,0,0.7,0,1,0l-0.1-0.2C1632.1,404.1,1631.1,404.2,1632.6,404.4z"></path> <path class="st4" d="M1615.4,401.8c0.1,0.4,1.6,0.4,3.1,0.4c-0.1,0-0.2,0-0.3,0C1618.7,401.7,1617,401.8,1615.4,401.8z"></path> <path class="st4" d="M1618.9,402.3c0.5,0,1,0,1.4,0.1C1620.5,402.1,1619.7,402.3,1618.9,402.3z"></path> <path class="st4" d="M1599.3,399.7c0.7,0.2,0.5-0.5,0.9-0.3C1601.1,398.9,1595.2,399.7,1599.3,399.7z"></path> <polygon class="st4" points="1616.5,403.3 1616,402.7 1615.1,403.1 "></polygon> <path class="st4" d="M1604.2,402l2.5,0.3c0-0.1,0.3-0.1,0.7-0.1C1605.9,402.1,1604.2,401.9,1604.2,402z"></path> <path class="st4" d="M1607.4,402.2c0.8,0.1,1.6,0.1,2,0.1C1609,402.3,1608,402.2,1607.4,402.2z"></path> <polygon class="st4" points="1613.1,403.2 1612.4,403 1610.6,402.9 "></polygon> <path class="st4" d="M1577.4,400.3h-2.7c-0.3,0.2,0.4,0.3,1.5,0.3C1576.8,400.5,1577.8,400.4,1577.4,400.3z"></path> <path class="st4" d="M1585.5,402.1c-0.7-0.1-0.8-0.3-1.2-0.5l-0.1,0.6L1585.5,402.1z"></path> <path class="st4" d="M1577.6,401.8c-0.3,0.2-4,0.3-0.5,0.4C1577.3,402.1,1580.1,402.1,1577.6,401.8z"></path> <polygon class="st4" points="1536.5,398.7 1537.2,398.8 1537.2,397.7 "></polygon> <path class="st4" d="M1500.2,399.6c3.2,0.4,0.8-0.6,3.7-0.2c0.8-0.2-2.4-0.3-1.6-0.5 C1500.3,399.1,1499.3,398.9,1500.2,399.6z"></path> <path class="st4" d="M1502.3,398.9c0.3,0,0.6-0.1,1-0.1C1502.7,398.8,1502.4,398.8,1502.3,398.9z"></path> <polygon class="st4" points="1093.6,415.3 1091.5,415.4 1092.9,415.5 "></polygon> <path class="st4" d="M1089.8,416.7l-0.6-0.6l-1.1,0.8C1088.5,416.8,1089.4,416.6,1089.8,416.7z"></path> <path class="st4" d="M1373.3,398.3l0.2-0.2c-0.3-0.2-0.8-0.2-1.8-0.2L1373.3,398.3z"></path> <polygon class="st4" points="1345.1,398.3 1345.6,398.3 1344.7,397.7 "></polygon> <path class="st4" d="M1321.5,399.6c1,0,2.1-0.2,3.1-0.2C1322.5,399.6,1321.2,398.9,1321.5,399.6z"></path> </g> </g> </g> </g> </g> </g> </g> </g> </svg> 